<svg xmlns="http://www.w3.org/2000/svg" xmlns:xlink="http://www.w3.org/1999/xlink" viewBox="0 0 424.56 237.25"><defs><style>.cls-1{stroke:#db7c45;stroke-miterlimit:10;stroke-width:7px;fill:url(#linear-gradient);}.cls-2{fill:#4f2a15;stroke:#4f2a15;stroke-width:11.15px;}.cls-2,.cls-3{stroke-linecap:round;stroke-linejoin:round;}.cls-3{fill:none;stroke:#fff;stroke-width:6.97px;}.cls-4{fill:#294f3b;}.cls-5{fill:#cf9500;}.cls-6{fill:url(#linear-gradient-2);}.cls-7{fill:url(#linear-gradient-3);}.cls-8{fill:url(#linear-gradient-4);}.cls-9{fill:url(#linear-gradient-5);}.cls-10{fill:url(#linear-gradient-6);}.cls-11{fill:url(#linear-gradient-7);}.cls-12{fill:url(#linear-gradient-8);}.cls-13{fill:url(#linear-gradient-9);}.cls-14{fill:url(#linear-gradient-10);}.cls-15{fill:url(#linear-gradient-11);}.cls-16{fill:url(#linear-gradient-12);}.cls-17{fill:url(#linear-gradient-13);}.cls-18{fill:url(#linear-gradient-14);}.cls-19{fill:url(#linear-gradient-15);}.cls-20{fill:url(#linear-gradient-16);}.cls-21{fill:url(#linear-gradient-17);}</style><linearGradient id="linear-gradient" x1="3.27" y1="10.97" x2="311.11" y2="169.82" gradientUnits="userSpaceOnUse"><stop offset="0" stop-color="#ffc655"/><stop offset="1" stop-color="#da7b4f"/></linearGradient><linearGradient id="linear-gradient-2" x1="269.53" y1="199.45" x2="284.8" y2="199.45" gradientUnits="userSpaceOnUse"><stop offset="0" stop-color="#fbea10"/><stop offset="1" stop-color="#f7b51e"/></linearGradient><linearGradient id="linear-gradient-3" x1="373.12" y1="199.73" x2="388.16" y2="199.73" xlink:href="#linear-gradient-2"/><linearGradient id="linear-gradient-4" x1="287.88" y1="200.4" x2="301.07" y2="200.4" xlink:href="#linear-gradient-2"/><linearGradient id="linear-gradient-5" x1="373.8" y1="182.78" x2="389.03" y2="182.78" xlink:href="#linear-gradient-2"/><linearGradient id="linear-gradient-6" x1="268.4" y1="182.35" x2="283.59" y2="182.35" xlink:href="#linear-gradient-2"/><linearGradient id="linear-gradient-7" x1="356.56" y1="201.12" x2="369.82" y2="201.12" xlink:href="#linear-gradient-2"/><linearGradient id="linear-gradient-8" x1="345.81" y1="184.99" x2="358.51" y2="184.99" xlink:href="#linear-gradient-2"/><linearGradient id="linear-gradient-9" x1="285.77" y1="171.15" x2="297.91" y2="171.15" xlink:href="#linear-gradient-2"/><linearGradient id="linear-gradient-10" x1="360.1" y1="171.49" x2="371.65" y2="171.49" xlink:href="#linear-gradient-2"/><linearGradient id="linear-gradient-11" x1="299.16" y1="184.88" x2="312.02" y2="184.88" xlink:href="#linear-gradient-2"/><linearGradient id="linear-gradient-12" x1="340.13" y1="195.79" x2="353.44" y2="195.79" xlink:href="#linear-gradient-2"/><linearGradient id="linear-gradient-13" x1="274.67" y1="165.75" x2="288.12" y2="165.75" xlink:href="#linear-gradient-2"/><linearGradient id="linear-gradient-14" x1="304.29" y1="195.22" x2="317.63" y2="195.22" xlink:href="#linear-gradient-2"/><linearGradient id="linear-gradient-15" x1="369.44" y1="166.28" x2="382.55" y2="166.28" xlink:href="#linear-gradient-2"/><linearGradient id="linear-gradient-16" x1="286.14" y1="185.85" x2="295.37" y2="185.85" xlink:href="#linear-gradient-2"/><linearGradient id="linear-gradient-17" x1="362.23" y1="186.43" x2="371.54" y2="186.43" xlink:href="#linear-gradient-2"/></defs><title>BreweryFinderLogo03</title><g id="background"><path class="cls-1" d="M52.57,3.38H420.93a0,0,0,0,1,0,0V234.23a0,0,0,0,1,0,0H3.55a0,0,0,0,1,0,0V52.4a49,49,0,0,1,49-49Z"/></g><g id="Layer_3" data-name="Layer 3"><path class="cls-2" d="M58.14,148.43a9,9,0,0,0-3-2.62,9.17,9.17,0,0,0-3.63-1,51.79,51.79,0,0,0,4.45-5.93,27.09,27.09,0,0,0,3.24-7,18,18,0,0,0,.49-8,12.14,12.14,0,0,0-4.58-7.67,19.09,19.09,0,0,0-8.95-3.63,30,30,0,0,0-11,.43,28.46,28.46,0,0,0-10.82,4.77,16.29,16.29,0,0,0-7.34,14.58,17.54,17.54,0,0,0,1.3,5.93c.71,1.56,1.28,2.36,1.72,2.38.2,0,.46-.24.78-.75s.73-1.22,1.19-2.1c.56-1.08,1.25-2.34,2.09-3.75a40.09,40.09,0,0,1,3-4.29,27,27,0,0,1,4-4.06,20.75,20.75,0,0,1,5.22-3.09,18.6,18.6,0,0,1,6.57-1.33c3.59-.12,6.3.58,8.11,2.18a7.36,7.36,0,0,1,2.42,6.46,15.19,15.19,0,0,1-1.14,4.83,25,25,0,0,1-2.31,4.22q-1.35,2-2.87,3.88t-2.87,3.9a12.84,12.84,0,0,0-1.88,3.76,6.11,6.11,0,0,0-.22,2.62,3,3,0,0,0,.66,1.52c.3.34.54.5.73.49a.46.46,0,0,0,.38-.19q.13-.18.42-.66a41.7,41.7,0,0,1,2.36-3.68c.27-.35.56-.73.89-1.13a4.48,4.48,0,0,1,2.56,1.34,7.77,7.77,0,0,1,1.84,3.33,15.06,15.06,0,0,1,.41,5.47,25.81,25.81,0,0,1-2.1,8.54,25.29,25.29,0,0,1-4.44,7A15.45,15.45,0,0,1,40,179.24a8.84,8.84,0,0,1-6.18.19C32,178.82,31,176.94,31,173.78s1-8,3.07-14.42c1.31-4.09,2.59-7.66,3.7-10.65,1-2.6,1.77-5,2.41-7a24.7,24.7,0,0,0,1.13-5.47c.12-2.36-.25-4.09-1.11-5.21a4.83,4.83,0,0,0-3-2,4.37,4.37,0,0,0-2.87.35,1.38,1.38,0,0,0-.74,1.81q.45,1.4-.86,6.12t-3.18,10.48c-.85,2.66-1.63,5.2-2.35,7.59a63.78,63.78,0,0,0-3,15.86c-.12,4.42.88,7.87,3,10.29s5.69,3.72,10.6,3.6a20.25,20.25,0,0,0,10.84-3.47,25,25,0,0,0,8.08-9,32.66,32.66,0,0,0,3.71-13.39,21,21,0,0,0-.37-6.48A11.56,11.56,0,0,0,58.14,148.43Z"/><path class="cls-2" d="M238.2,106.36a.27.27,0,0,0-.33.18c-.41,1-1.18,2.85-2.33,5.49s-2.51,5.49-4.07,8.56a63.61,63.61,0,0,1-4.8,8q.68-3.53,1.26-6.94,3.34-16.17,3.27-20.73a5.66,5.66,0,0,0-1.27-4,3.88,3.88,0,0,0-2.8-1.2,5.52,5.52,0,0,0-2.8.7A2.25,2.25,0,0,0,223,98q0,.92-.09,1.92-2.85,9.51-6.81,19.62a144.42,144.42,0,0,1-6.34,14.54c-.27-.29-.29-1.33-.07-3.14a78.63,78.63,0,0,1,1.92-8.74c.87-3.36,1.61-6.19,2.25-8.43A64.62,64.62,0,0,0,216,105a3.5,3.5,0,0,0-1-3,4,4,0,0,0-3.32-.89c-2.06.31-3.25,1-3.57,2.11,0,.14-.05.27-.07.41a1.93,1.93,0,0,0,0,.42,17,17,0,0,1-.16,2c-.11,1-.38,2.67-.81,5s-1.1,5.65-2,9.87c-.09.37-.17.72-.26,1.08-.33.91-.68,1.9-1.09,3-1,2.82-2.07,5.51-3.12,8.07a28.58,28.58,0,0,1-2.48,5.1c-.41.39-.74.56-1,.51a.67.67,0,0,1-.51-.5,2.09,2.09,0,0,1-.12-.85,54.24,54.24,0,0,1,1.58-8.23c.85-3.4,1.88-7.18,3-11.31q.71-2.55,1.46-5.24,1-3.81.16-5.46a2.86,2.86,0,0,0-2.45-1.76,6.55,6.55,0,0,0-2.87.37,2.1,2.1,0,0,0-1.48,1.55,11.38,11.38,0,0,1-1.87,5,18.17,18.17,0,0,1-3.53,3.91,19.1,19.1,0,0,1-3.8,2.48,28.83,28.83,0,0,0,1.27-5.61,3.82,3.82,0,0,0-.35-2.45,1.81,1.81,0,0,0-1.26-.68,3.75,3.75,0,0,0-2,.25,7.1,7.1,0,0,0-1.87,1,2.2,2.2,0,0,0-.9,1.14,3.09,3.09,0,0,0,.05.78,9.85,9.85,0,0,1,.1,2.56,48.4,48.4,0,0,1-1.05,6.77,17.5,17.5,0,0,0-.3,2.2,3.24,3.24,0,0,0,.35,1.94,1.85,1.85,0,0,0,1.62,1.16l.12,0c-1.05,2.49-2.1,4.85-3.13,7a54.4,54.4,0,0,1-4.49,7.73c-2.49,3.58-4.9,5.88-7.09,6.88s-3.87.82-5.05-.55-1.54-3.8-1.08-7.28a18.76,18.76,0,0,0,8.2-4.43,27.77,27.77,0,0,0,5.63-7.17,24.12,24.12,0,0,0,2.71-7.24,13.45,13.45,0,0,0,0-5.34,4.55,4.55,0,0,0-2.09-3.1,5.07,5.07,0,0,0-4.16,0,17.38,17.38,0,0,0-3.64,1.83,18.39,18.39,0,0,0-3.89,3.38,43.5,43.5,0,0,0-6.52,10.26,47.06,47.06,0,0,0-3.67,12.79,16.73,16.73,0,0,1-1.73,2.18,5.53,5.53,0,0,1-4.28,2,1.71,1.71,0,0,1-.94-.28,115.34,115.34,0,0,0,5.29-11,53.16,53.16,0,0,0,3-9.36,3.11,3.11,0,0,0-1.28-3.22,6,6,0,0,0-3.57-1.1,3.49,3.49,0,0,0-3,1.34,20.24,20.24,0,0,0-3,7.34,44.39,44.39,0,0,0-1.2,9.7c-1.22,3.31-2.93,7.28-5.14,11.83a29.31,29.31,0,0,1-4.07,6.65c-1.15,1.27-2,1.7-2.43,1.3-.32-.34-.32-1.4,0-3.18a63.45,63.45,0,0,1,2.69-8.78c1.56-4.32,2.75-7.76,3.5-10.27a34.18,34.18,0,0,0,1.34-6.84,5.09,5.09,0,0,0-.73-3.39,3.36,3.36,0,0,0-3.09-1.26c-2.07.19-3.26.82-3.58,1.9a5.41,5.41,0,0,0,0,1,26,26,0,0,1-.23,4,76,76,0,0,1-2,9.52h0v0q-1.34,4.51-3.17,9.31a57.12,57.12,0,0,1-3.76,8.09c-1.28,2.2-2.44,3.29-3.46,3.29-.66,0-1-.9-.87-2.69a58.9,58.9,0,0,1,1.74-9.39c.59-2.41,1.19-4.84,1.83-7.22,1.11-4.09,1.86-7.16,2.2-9.16.28-2.56-1-4-3.91-4.32A4.64,4.64,0,0,0,118,131a2.09,2.09,0,0,0-1.18,1.26,1.56,1.56,0,0,0,0,.35c0,.1,0,.2,0,.3s0,.59,0,1.1a20,20,0,0,1-.28,2.47c-.18,1.14-.48,2.75-.91,4.83s-1,4.81-1.84,8.1q-.7,2.87-1.26,5.5l-.12.26a48.74,48.74,0,0,1-4.46,7.35c-2.47,3.35-4.87,5.42-7,6.19s-3.84.39-5-1.13-1.52-4-1.06-7.48a15.84,15.84,0,0,0,8.13-3.52,23.84,23.84,0,0,0,5.59-6.64,22.14,22.14,0,0,0,2.69-7,13.93,13.93,0,0,0,0-5.39,5.25,5.25,0,0,0-2.07-3.33,5.14,5.14,0,0,0-4.13-.46,15.14,15.14,0,0,0-3.61,1.45,15.49,15.49,0,0,0-3.86,3,37.06,37.06,0,0,0-6.46,9.55,43.34,43.34,0,0,0-3.69,12.73c-.86,2.23-1.73,4.39-2.6,6.43a23.07,23.07,0,0,1-2.46,4.73c-.41.33-.73.45-1,.35a.92.92,0,0,1-.51-.6,2.53,2.53,0,0,1-.11-.89,51.21,51.21,0,0,1,1.56-8.05c.85-3.29,1.87-6.94,3-10.93l1.44-5c.65-2.47.7-4.31.17-5.51a3.6,3.6,0,0,0-2.42-2.2,6,6,0,0,0-2.83-.14,1.64,1.64,0,0,0-1.46,1.29,9.77,9.77,0,0,1-1.85,4.76,13.44,13.44,0,0,1-3.48,3.27,13.82,13.82,0,0,1-3.75,1.74,26.48,26.48,0,0,0,1.26-5.43,4.33,4.33,0,0,0-.34-2.56,2.32,2.32,0,0,0-1.24-1,3.55,3.55,0,0,0-1.93-.17,5.69,5.69,0,0,0-1.84.62,1.7,1.7,0,0,0-.89,1,3.27,3.27,0,0,0,.05.8,10.76,10.76,0,0,1,.09,2.63,44.59,44.59,0,0,1-1,6.65,16.49,16.49,0,0,0-.3,2.17,3.77,3.77,0,0,0,.34,2.05A2.46,2.46,0,0,0,67,157.91c1,.23,2.16-.17,3.56-1.19a30,30,0,0,0,4.34-4c1.48-1.63,2.84-3.24,4.05-4.82q-1.71,5.26-3.34,11.64a64,64,0,0,0-2,10.3,12.67,12.67,0,0,0,1,6.53c.84,1.66,2.31,2.3,4.35,1.85,1.24-.27,2.5-1.3,3.72-3a41.77,41.77,0,0,0,4.45-9,11.71,11.71,0,0,0,2.07,6.42c1.78,2.33,4.29,3.16,7.55,2.45a15,15,0,0,0,5.92-2.7,24.27,24.27,0,0,0,4.7-4.74,41.75,41.75,0,0,0,3.72-5.88c.15-.29.28-.58.43-.87a22.62,22.62,0,0,0-.09,3.72,5.5,5.5,0,0,0,1.78,4.1,4.81,4.81,0,0,0,3.5,1.08c1.34-.09,2.82-1.13,4.45-3.1s3.4-5.37,5.29-10.18a17.55,17.55,0,0,0-.08,5.29A4.5,4.5,0,0,0,128.3,165a4.91,4.91,0,0,0,4.15.75,6.35,6.35,0,0,0,3.21-2.65,63.36,63.36,0,0,0,10.19-14,2.17,2.17,0,0,0,1.4.44,8.35,8.35,0,0,0,6-2.92c.24-.27.46-.55.69-.83-.22,4.06.47,7.05,2.11,8.95,1.8,2.07,4.34,2.58,7.62,1.5a17.62,17.62,0,0,0,6-3.34,28.69,28.69,0,0,0,4.74-5.19,47.41,47.41,0,0,0,3.75-6.21c1.09-2.17,2.06-4.33,2.91-6.46s1.62-4.12,2.27-6c.2-.55.39-1.09.58-1.6a9.35,9.35,0,0,0,2.17-1.55,41.17,41.17,0,0,0,4.39-4.83q2.26-2.85,4.11-5.54-1.72,5.52-3.37,12.12a65.89,65.89,0,0,0-2,10.54,11,11,0,0,0,1,6.23c.85,1.47,2.34,1.82,4.42,1a8.83,8.83,0,0,0,3.76-3.65,45.88,45.88,0,0,0,4-8.34c0,.33-.09.68-.12,1-.24,2.62.4,4.56,1.9,5.68,2.28,1.71,4.48.95,6.45-2.21a88,88,0,0,0,5.21-11.65q3.22-8.31,6.35-18.17c-.56,4.61-1.42,10.67-2.75,17.79-.33,1.77-.67,3.48-1,5.06-.43,2.37-.77,4.07-1,5.08a48.84,48.84,0,0,0-10,12.4,47,47,0,0,0-5.22,13.1q-1.33,6.16.35,9.39c1.13,2.14,3.38,2.6,6.77,1.37q3.66-1.62,6.68-7.43a77.8,77.8,0,0,0,5.43-14.18q2.43-8.37,4.3-17.6a58.61,58.61,0,0,0,6.61-10.4q2.85-5.72,4.55-10.16a55.27,55.27,0,0,0,1.87-5.35.59.59,0,0,0-.16-.53A.65.65,0,0,0,238.2,106.36Zm-71.27,18.92q3.1-5.75,5.44-6.9c.6-.22,1-.11,1.22.35a4.1,4.1,0,0,1,.25,1.92,23.14,23.14,0,0,1-1.61,6.22,27.27,27.27,0,0,1-3.9,6.81,15.7,15.7,0,0,1-6.09,4.83A49.64,49.64,0,0,1,166.93,125.28Zm-66.88,18.95q3.06-5.44,5.39-6.36a.9.9,0,0,1,1.21.48,4.37,4.37,0,0,1,.25,2,21.77,21.77,0,0,1-1.6,6.1,24.14,24.14,0,0,1-3.88,6.44,13.1,13.1,0,0,1-6,4.16A45.18,45.18,0,0,1,100.05,144.23Zm110.55,16.6c-1.92,4.21-3.64,6.22-5.1,6-1.14-.21-1.5-1.83-1-4.8a38.42,38.42,0,0,1,3.76-10.7,47.34,47.34,0,0,1,8.52-11.87Q213.47,154.53,210.6,160.83Z"/><path class="cls-2" d="M279.57,78.74c-1.8-.08-5.15.67-10.05,2.31a99,99,0,0,0,2-11.91c.2-1.93.32-3.63.37-5.09.29.06.57.12.84.16a30.45,30.45,0,0,0,4.65.64,15.6,15.6,0,0,0,5.33-.7,15.19,15.19,0,0,0,3.83-1.88c-.37,2.21-.72,4.7-1,7.53a1.4,1.4,0,0,0,.79,1.39,4.39,4.39,0,0,0,2,.51,8.43,8.43,0,0,0,2.18-.17,1.92,1.92,0,0,0,1.27-.67,16.43,16.43,0,0,0,.77-2.19q.51-1.74,1.67-4.66a62.3,62.3,0,0,1,3.53-7.21,1.88,1.88,0,0,0-.68-2.54,8.09,8.09,0,0,0-3.53-1.44c-.39-.07-.77-.11-1.13-.14a12.7,12.7,0,0,0,.21-3.7c-.17-1.42-.54-2.06-1.1-1.9a1.74,1.74,0,0,0-.73.47c-.25.25-.52.55-.83.92a16.71,16.71,0,0,1-1.52,1.68,12.84,12.84,0,0,1-2.36,1.79,14.94,14.94,0,0,1-3.69,1.55,12.4,12.4,0,0,1-3,.53c-.92,0-1.87,0-2.83,0a37.36,37.36,0,0,0-4.67.06,32.14,32.14,0,0,0-7.12,1.58,18.26,18.26,0,0,0-5.35,2.72A28.71,28.71,0,0,0,255,62.32a36.74,36.74,0,0,0-3.29,4.19,29.23,29.23,0,0,0-2.1,3.59,8,8,0,0,0-.77,2.06A3.63,3.63,0,0,0,249,74a1.39,1.39,0,0,0,.75.73,1.31,1.31,0,0,0,.8,0c.24-.08.62-.56,1.12-1.43a34.07,34.07,0,0,1,2.06-2.93,20.36,20.36,0,0,1,3.35-3.35,15.53,15.53,0,0,1,5-2.61,17.63,17.63,0,0,1,3.43-.75c-.11,2.06-.4,4.84-.91,8.22a83.23,83.23,0,0,1-2.92,12.3,31.79,31.79,0,0,0-8.49,5.51,10.48,10.48,0,0,0-2,3.67,27.09,27.09,0,0,0-1.19,4.71,18.5,18.5,0,0,0-.31,3.79c0,1,.25,1.23.61.86A73.68,73.68,0,0,1,258.09,95c-.23.61-.44,1.22-.66,1.81-1.74,4.82-3.27,9.31-4.4,13.36a23,23,0,0,0-.92,10.16q.87,3.39,3.14,3.55a6.34,6.34,0,0,0,4.32-1.39,3.71,3.71,0,0,0,2.08-4.46,13.49,13.49,0,0,1-.38-4.13,41.29,41.29,0,0,1,1.32-8.18c.75-2.9,1.64-6,2.67-9.31.79-2.53,1.59-5.19,2.38-8a41,41,0,0,1,6-2.61,35.05,35.05,0,0,1,3.62-1,3.63,3.63,0,0,0,.75-.19,5.61,5.61,0,0,0,1.12-1.89,11.68,11.68,0,0,0,.8-2.65C280.1,79.28,280,78.82,279.57,78.74Z"/><path class="cls-2" d="M400.65,77.77a2.11,2.11,0,0,0-.39-.67c-.15-.17-.28-.17-.38,0a.23.23,0,0,1,0,.11q-.78,2.06-2.3,5.77t-3,7a18.61,18.61,0,0,1-2.42,4.26c-.4.24-.72.29-1,.14a1.28,1.28,0,0,1-.5-.72,2.78,2.78,0,0,1-.11-.92,48.79,48.79,0,0,1,1.55-7.85c.84-3.16,1.84-6.65,3-10.44l1.43-4.8c.63-2.36.69-4.21.16-5.56a4.87,4.87,0,0,0-2.37-2.8,6.26,6.26,0,0,0-2.79-.74c-.83,0-1.31.37-1.43,1a8.45,8.45,0,0,1-1.83,4.48,11,11,0,0,1-3.45,2.73,12.61,12.61,0,0,1-3.7,1.22,25.77,25.77,0,0,0,1.25-5.31,4.65,4.65,0,0,0-.34-2.63A2.75,2.75,0,0,0,380.76,61a3.67,3.67,0,0,0-1.92-.39A4.92,4.92,0,0,0,377,61a1.49,1.49,0,0,0-.89.88,3.43,3.43,0,0,0,.05.82,11.56,11.56,0,0,1,.09,2.65,44.59,44.59,0,0,1-1,6.6,16.32,16.32,0,0,0-.3,2.16,4,4,0,0,0,.34,2.1,2.76,2.76,0,0,0,1.58,1.69s.07,0,.11,0c-1,2.22-2.05,4.3-3.06,6.2a39.18,39.18,0,0,1-4.41,6.55c-2.43,2.92-4.8,4.6-6.95,5a4.42,4.42,0,0,1-5-1.83c-1.15-1.68-1.5-4.23-1-7.67a14.56,14.56,0,0,0,8.06-2.45,19.12,19.12,0,0,0,5.52-5.75,18.88,18.88,0,0,0,2.66-6.59,14.31,14.31,0,0,0,0-5.46,6.71,6.71,0,0,0-2-3.78A5.28,5.28,0,0,0,366.69,61a12,12,0,0,0-3.57.91,12.3,12.3,0,0,0-3.82,2.49,31.35,31.35,0,0,0-6.42,9A43,43,0,0,0,349,87.61c0,.07,0,.13,0,.2-.64,1.56-1.28,3.1-1.92,4.57a17.07,17.07,0,0,1-2.53,4.55c-.31.27-.62.22-.92-.14a4.66,4.66,0,0,1-.55-2.4,23.73,23.73,0,0,1,.58-5.37c1.65-8.37,3.5-16.22,5.34-23.37q2-7.71,3.19-13.45a31.07,31.07,0,0,0,.93-8.66,9,9,0,0,0-1.64-4.45,4.61,4.61,0,0,0-3.18-1.88,4,4,0,0,0-2.61.47,1.67,1.67,0,0,0-.88,1.31v.07c0,.26,0,.71,0,1.37s-.14,1.71-.32,3.16-.49,3.48-.91,6.11-1,6.06-1.76,10.21c-.6,3.23-1.18,6.23-1.72,9a5.61,5.61,0,0,0-3.94-3.46c-1.88-.5-4,.22-6.19,2.14s-4.46,5.49-6.66,10.68a90.35,90.35,0,0,0-4.13,12.56c-.75,2-1.5,3.89-2.29,5.78a45,45,0,0,1-2.48,5.26,1.78,1.78,0,0,1-1,.79c-.31.07-.51-.21-.58-.83-.18-1.42.54-5.13,2.11-11,.87-3.27,1.61-6,2.23-8.21A59.75,59.75,0,0,0,319.23,74a4.07,4.07,0,0,0-.93-3.17A4.39,4.39,0,0,0,315,69.48c-2,0-3.22.62-3.53,1.69a2.63,2.63,0,0,0-.06.39q-.78,2-2.16,5.78-1.9,5.25-5.29,14.21c-.46,1.2-.88,2.33-1.27,3.36-.91,2.44-1.71,4.52-2.37,6.24s-1.33,3.35-2,4.88c-.27-.31-.3-1.36-.07-3.16a74.17,74.17,0,0,1,1.91-8.62c.87-3.29,1.6-6.07,2.23-8.27a60.58,60.58,0,0,0,2.07-8.59,3.9,3.9,0,0,0-.93-3.13,4.28,4.28,0,0,0-3.3-1.21q-3.06.18-3.54,1.8a2.63,2.63,0,0,0-.06.39l0,.43a18.41,18.41,0,0,1-.15,2c-.12,1-.38,2.66-.81,5-.34,1.82-.84,4.26-1.5,7.27a.4.4,0,0,0-.13.13.28.28,0,0,1,0,.13q-.87,2.43-2.48,6.75c-1.08,2.88-2.15,5.59-3.22,8.11s-1.87,4-2.42,4.52-.74.38-1,0-.21-1.52,0-3.32a80.33,80.33,0,0,1,1.85-8.39c.87-3.3,1.64-6.1,2.27-8.31a67.11,67.11,0,0,0,2.07-8.64,3.82,3.82,0,0,0-.94-3.09,4.2,4.2,0,0,0-3.3-1.13c-2.07.18-3.26.82-3.58,1.9a2.63,2.63,0,0,0-.06.39l0,.43a17.6,17.6,0,0,1-.14,2c-.1,1-.36,2.65-.79,5s-1.14,5.58-2.08,9.8c-.3,1.37-.61,2.73-.93,4a61.07,61.07,0,0,0-1.77,9.24c-.24,2.62.4,4.57,1.85,5.9a4.1,4.1,0,0,0,2.91,1.1q1.71,0,3.88-3a52.42,52.42,0,0,0,5-10.66l.29-.85c-.25,1.36-.44,2.64-.54,3.81-.24,2.61.39,4.62,1.88,5.87,2.27,1.91,4.47,1.35,6.41-1.64a77.76,77.76,0,0,0,4.42-10.86c2-5.54,4-11.53,6.12-17.8.21-.61.41-1.22.61-1.82-.43,2.24-1.07,5.35-2,9.24-.31,1.36-.63,2.71-.95,4a62.1,62.1,0,0,0-1.76,9.2c-.25,2.63.38,4.62,1.86,6a3.87,3.87,0,0,0,2.9,1.27v0l.11,0,0,0h0a3.88,3.88,0,0,0,.45-.14h0l.08,0A6.86,6.86,0,0,0,314,106.4a44.23,44.23,0,0,0,4-7.94,10,10,0,0,0,.22,3.36,6.23,6.23,0,0,0,1.65,2.77,5.42,5.42,0,0,0,3.08,1.58,5.17,5.17,0,0,0,3.91-1.3,20.83,20.83,0,0,0,4.48-5.12,48.86,48.86,0,0,0,4.34-8.47,27.33,27.33,0,0,0-.41,7.87c.28,1.78.82,3,1.62,3.56a3.89,3.89,0,0,0,2.68.77,6.73,6.73,0,0,0,2.93-1,8.14,8.14,0,0,0,2.61-2.59,56.13,56.13,0,0,0,3.8-7.65,12.23,12.23,0,0,0,2,6,7.69,7.69,0,0,0,7.49,3.27,13.48,13.48,0,0,0,5.85-1.85,19.41,19.41,0,0,0,4.65-4,33.09,33.09,0,0,0,3.67-5.23,58.36,58.36,0,0,0,2.86-5.7c.82-1.91,1.58-3.71,2.22-5.37.2-.5.38-1,.57-1.45a6.06,6.06,0,0,0,2.12-.87,25.85,25.85,0,0,0,4.29-3.42q2.2-2.13,4-4.19-1.69,5-3.31,11.21a59.71,59.71,0,0,0-1.94,10.11,14.07,14.07,0,0,0,1,6.77,4.26,4.26,0,0,0,4.29,2.68c1.22,0,2.46-.8,3.65-2.28a33.4,33.4,0,0,0,4.77-9.09q2.24-5.9,3.62-10.51A1.26,1.26,0,0,0,400.65,77.77ZM361.73,70.9q3-5.07,5.33-5.61a1,1,0,0,1,1.2.69,5,5,0,0,1,.25,2,21.23,21.23,0,0,1-5.43,11.8,11.36,11.36,0,0,1-6,3.41A40.81,40.81,0,0,1,361.73,70.9Zm-23.05,4.81q-.76,3.81-1.49,7.46A61.63,61.63,0,0,1,332,94.79q-2.89,4.89-4.58,5.32c-1,.19-1.46-1.2-1.38-4.18s1.27-7.91,3.62-14.51a35.69,35.69,0,0,1,4.1-8.67c1.23-1.67,2.31-2.47,3.18-2.35a3.06,3.06,0,0,1,1.52.65,4.93,4.93,0,0,1,1,1.1C339.15,73.36,338.92,74.55,338.68,75.71Z"/><path class="cls-3" d="M64.65,139.72A8.93,8.93,0,0,0,58,136.08a52.82,52.82,0,0,0,4.45-5.94,26.79,26.79,0,0,0,3.24-7,18,18,0,0,0,.49-8,12.09,12.09,0,0,0-4.58-7.66,19.1,19.1,0,0,0-9-3.64,30.44,30.44,0,0,0-11,.43A28.84,28.84,0,0,0,30.78,109a16.31,16.31,0,0,0-7.33,14.58,17.3,17.3,0,0,0,1.3,5.93c.71,1.57,1.28,2.36,1.72,2.39.2,0,.46-.24.78-.76s.73-1.22,1.19-2.1c.56-1.07,1.25-2.34,2.09-3.74a39.19,39.19,0,0,1,3-4.3,27,27,0,0,1,4-4,20.45,20.45,0,0,1,5.22-3.09,18.38,18.38,0,0,1,6.56-1.34c3.6-.11,6.31.59,8.12,2.18a7.39,7.39,0,0,1,2.42,6.46A15,15,0,0,1,58.72,126a24.52,24.52,0,0,1-2.3,4.21c-.91,1.32-1.86,2.62-2.87,3.89s-2,2.56-2.88,3.89a13,13,0,0,0-1.87,3.76,6.12,6.12,0,0,0-.22,2.62,3.2,3.2,0,0,0,.65,1.53c.31.33.55.5.74.49a.49.49,0,0,0,.38-.19q.13-.18.42-.66a40.2,40.2,0,0,1,2.36-3.68l.88-1.14a4.56,4.56,0,0,1,2.57,1.35,7.72,7.72,0,0,1,1.84,3.32,15.08,15.08,0,0,1,.41,5.47,25.81,25.81,0,0,1-2.1,8.54,25.14,25.14,0,0,1-4.44,7,15.59,15.59,0,0,1-5.76,4.16,8.89,8.89,0,0,1-6.18.18c-1.86-.61-2.82-2.49-2.83-5.65s1-8,3.07-14.42c1.31-4.09,2.59-7.66,3.7-10.64,1-2.6,1.77-5,2.4-7a24.28,24.28,0,0,0,1.14-5.48q.18-3.54-1.11-5.2a4.75,4.75,0,0,0-3-2,4.31,4.31,0,0,0-2.87.35,1.37,1.37,0,0,0-.74,1.8q.45,1.41-.87,6.12t-3.17,10.49q-1.29,4-2.35,7.58a63.86,63.86,0,0,0-3,15.86c-.13,4.42.88,7.87,3,10.29s5.69,3.72,10.59,3.6A20.33,20.33,0,0,0,55.19,173a24.9,24.9,0,0,0,8.07-9A32.51,32.51,0,0,0,67,150.62a20.91,20.91,0,0,0-.37-6.47A11.61,11.61,0,0,0,64.65,139.72Z"/><path class="cls-3" d="M244.71,97.65a.27.27,0,0,0-.33.19c-.41,1-1.18,2.85-2.33,5.48s-2.51,5.49-4.07,8.56a63.77,63.77,0,0,1-4.8,8c.45-2.35.86-4.67,1.25-7q3.36-16.17,3.28-20.72a5.67,5.67,0,0,0-1.28-4,3.94,3.94,0,0,0-2.79-1.2,5.4,5.4,0,0,0-2.8.71,2.24,2.24,0,0,0-1.31,1.6c0,.61,0,1.25-.09,1.93q-2.85,9.49-6.81,19.61a144.42,144.42,0,0,1-6.34,14.54c-.27-.28-.3-1.33-.07-3.13a78.68,78.68,0,0,1,1.92-8.75c.87-3.35,1.61-6.18,2.24-8.42a61.62,61.62,0,0,0,2.08-8.75,3.52,3.52,0,0,0-.94-3,4,4,0,0,0-3.32-.88c-2.06.31-3.25,1-3.57,2.11,0,.13,0,.27-.07.4a2.88,2.88,0,0,0,0,.42,16.15,16.15,0,0,1-.15,2c-.11,1-.38,2.68-.81,5s-1.1,5.65-2.05,9.87l-.26,1.09-1.09,3c-1,2.82-2.08,5.5-3.12,8.06a27.86,27.86,0,0,1-2.48,5.1c-.41.4-.74.57-1,.51a.69.69,0,0,1-.52-.5,2.26,2.26,0,0,1-.11-.85,55.28,55.28,0,0,1,1.57-8.23q1.29-5.1,3-11.31c.48-1.69,1-3.45,1.47-5.23.64-2.55.7-4.37.16-5.47a2.86,2.86,0,0,0-2.45-1.76,6.53,6.53,0,0,0-2.87.37,2.12,2.12,0,0,0-1.48,1.56,11.38,11.38,0,0,1-1.87,5,17.94,17.94,0,0,1-3.53,3.91,18.67,18.67,0,0,1-3.8,2.48,29.38,29.38,0,0,0,1.27-5.6,3.8,3.8,0,0,0-.35-2.45,1.79,1.79,0,0,0-1.26-.69,3.81,3.81,0,0,0-2,.26,7.18,7.18,0,0,0-1.86,1,2.37,2.37,0,0,0-.91,1.14,3.1,3.1,0,0,0,.06.78,10.05,10.05,0,0,1,.09,2.56,46.28,46.28,0,0,1-1,6.77,18,18,0,0,0-.3,2.2,3.28,3.28,0,0,0,.35,2,1.83,1.83,0,0,0,1.62,1.15l.12,0c-1.05,2.49-2.1,4.86-3.13,7a56,56,0,0,1-4.49,7.73c-2.49,3.57-4.9,5.87-7.09,6.88s-3.88.82-5-.55-1.54-3.8-1.08-7.29a18.64,18.64,0,0,0,8.2-4.42,28.11,28.11,0,0,0,5.63-7.17,24.32,24.32,0,0,0,2.71-7.24,13.63,13.63,0,0,0,0-5.34,4.54,4.54,0,0,0-2.09-3.1,5,5,0,0,0-4.16,0,17.38,17.38,0,0,0-3.64,1.83,18.39,18.39,0,0,0-3.89,3.38,43.5,43.5,0,0,0-6.52,10.26,46.78,46.78,0,0,0-3.67,12.8,18.4,18.4,0,0,1-1.73,2.18,5.48,5.48,0,0,1-4.28,2,1.79,1.79,0,0,1-.94-.27,112.82,112.82,0,0,0,5.28-11,52.8,52.8,0,0,0,3.05-9.37,3.09,3.09,0,0,0-1.28-3.21,5.94,5.94,0,0,0-3.57-1.1,3.49,3.49,0,0,0-3,1.34,20.18,20.18,0,0,0-3,7.33,44.47,44.47,0,0,0-1.2,9.7c-1.22,3.31-2.93,7.29-5.14,11.84a29.31,29.31,0,0,1-4.07,6.65q-1.74,1.89-2.43,1.29c-.32-.34-.32-1.4,0-3.18a64,64,0,0,1,2.68-8.77c1.57-4.33,2.76-7.77,3.5-10.28a33.31,33.31,0,0,0,1.35-6.84,5.11,5.11,0,0,0-.73-3.39,3.4,3.4,0,0,0-3.1-1.26c-2.06.19-3.25.82-3.57,1.9a5.41,5.41,0,0,0,0,1,26,26,0,0,1-.23,4,77.51,77.51,0,0,1-2,9.52h0v0q-1.34,4.51-3.17,9.31a57.12,57.12,0,0,1-3.76,8.09c-1.28,2.2-2.44,3.3-3.46,3.29-.66,0-1-.9-.87-2.68a58.51,58.51,0,0,1,1.74-9.39c.58-2.41,1.19-4.84,1.83-7.23,1.11-4.09,1.86-7.16,2.19-9.15.29-2.57-1-4-3.9-4.33a4.91,4.91,0,0,0-2.47.45,2.1,2.1,0,0,0-1.17,1.26,1.14,1.14,0,0,0,0,.35,2.91,2.91,0,0,0,0,.3,8.58,8.58,0,0,1,0,1.1,22.65,22.65,0,0,1-.28,2.48c-.18,1.13-.48,2.74-.91,4.82s-1,4.82-1.84,8.11q-.71,2.85-1.26,5.5l-.12.25a49.06,49.06,0,0,1-4.46,7.35c-2.47,3.36-4.87,5.42-7,6.19s-3.84.39-5-1.13-1.52-4-1.06-7.48a15.79,15.79,0,0,0,8.13-3.52,24,24,0,0,0,5.59-6.64,22.39,22.39,0,0,0,2.69-7,13.87,13.87,0,0,0,0-5.38,5.24,5.24,0,0,0-2.07-3.33,5.07,5.07,0,0,0-4.13-.46,15.32,15.32,0,0,0-3.61,1.44,15.49,15.49,0,0,0-3.86,3A37.07,37.07,0,0,0,97.63,139,43.75,43.75,0,0,0,94,151.7c-.87,2.23-1.73,4.39-2.61,6.43a23.66,23.66,0,0,1-2.45,4.74c-.41.33-.73.44-1,.34a.92.92,0,0,1-.51-.6,2.48,2.48,0,0,1-.11-.88,51.3,51.3,0,0,1,1.56-8.06c.85-3.29,1.87-6.94,3-10.92q.72-2.46,1.45-5.06c.64-2.47.7-4.3.17-5.51a3.6,3.6,0,0,0-2.42-2.2,6.15,6.15,0,0,0-2.83-.14,1.63,1.63,0,0,0-1.46,1.3,9.74,9.74,0,0,1-1.85,4.75,13.32,13.32,0,0,1-3.49,3.27,13.64,13.64,0,0,1-3.74,1.74A26.42,26.42,0,0,0,79,135.48a4.36,4.36,0,0,0-.34-2.57,2.36,2.36,0,0,0-1.24-1,3.58,3.58,0,0,0-1.94-.16,5.27,5.27,0,0,0-1.83.62,1.66,1.66,0,0,0-.89,1,3.24,3.24,0,0,0,0,.8,11.36,11.36,0,0,1,.09,2.63,44.4,44.4,0,0,1-1,6.65,17,17,0,0,0-.3,2.17,3.8,3.8,0,0,0,.34,2.06,2.47,2.47,0,0,0,1.59,1.53c1,.23,2.16-.16,3.56-1.19a29.42,29.42,0,0,0,4.34-4q2.22-2.44,4-4.82-1.71,5.26-3.34,11.64a61.93,61.93,0,0,0-1.95,10.31,12.54,12.54,0,0,0,1,6.52,3.54,3.54,0,0,0,4.35,1.86c1.24-.27,2.5-1.3,3.72-3a41.11,41.11,0,0,0,4.44-9,11.75,11.75,0,0,0,2.08,6.43q2.67,3.5,7.55,2.45a14.93,14.93,0,0,0,5.91-2.71,24.26,24.26,0,0,0,4.71-4.73,41.86,41.86,0,0,0,3.72-5.89c.15-.29.28-.57.43-.86a22.52,22.52,0,0,0-.09,3.71,5.51,5.51,0,0,0,1.78,4.11,4.85,4.85,0,0,0,3.5,1.08c1.34-.1,2.82-1.13,4.45-3.11s3.39-5.37,5.29-10.18a17.23,17.23,0,0,0-.08,5.29,4.46,4.46,0,0,0,1.92,3.21A4.85,4.85,0,0,0,139,157a6.32,6.32,0,0,0,3.22-2.65,63.36,63.36,0,0,0,10.19-14,2,2,0,0,0,1.4.44,8.32,8.32,0,0,0,6-2.91c.24-.27.46-.56.69-.83-.23,4,.47,7,2.11,8.94q2.68,3.12,7.62,1.5a17.45,17.45,0,0,0,6-3.34,28.3,28.3,0,0,0,4.74-5.18,47.57,47.57,0,0,0,3.74-6.21q1.65-3.27,2.92-6.46c.84-2.13,1.62-4.13,2.27-6,.19-.56.39-1.1.58-1.61a9.35,9.35,0,0,0,2.17-1.55,41.83,41.83,0,0,0,4.39-4.82q2.27-2.86,4.11-5.55-1.72,5.52-3.38,12.12a67.22,67.22,0,0,0-2,10.54,11,11,0,0,0,1,6.23c.85,1.47,2.34,1.82,4.41,1a8.88,8.88,0,0,0,3.77-3.66,46.76,46.76,0,0,0,4-8.33c0,.33-.09.67-.12,1-.24,2.61.4,4.55,1.9,5.67,2.28,1.71,4.48,1,6.45-2.21a86.78,86.78,0,0,0,5.21-11.65q3.22-8.31,6.35-18.17c-.56,4.61-1.42,10.67-2.75,17.8-.33,1.76-.67,3.48-1,5.06-.42,2.36-.77,4.06-1,5.08a48.92,48.92,0,0,0-10,12.4,47.11,47.11,0,0,0-5.21,13.09q-1.34,6.18.35,9.39t6.77,1.37q3.66-1.6,6.67-7.43A77.77,77.77,0,0,0,228,141.93q2.43-8.35,4.3-17.6a59.19,59.19,0,0,0,6.61-10.4q2.85-5.7,4.55-10.16a55.09,55.09,0,0,0,1.86-5.34.57.57,0,0,0-.15-.54A.74.74,0,0,0,244.71,97.65Zm-71.27,18.92q3.09-5.73,5.43-6.89c.61-.23,1-.12,1.23.34a4.26,4.26,0,0,1,.25,1.93,22.92,22.92,0,0,1-1.62,6.22,26.84,26.84,0,0,1-3.9,6.81,15.64,15.64,0,0,1-6.08,4.82A49.77,49.77,0,0,1,173.44,116.57Zm-66.88,19q3.06-5.43,5.39-6.35a.89.89,0,0,1,1.21.48,4.32,4.32,0,0,1,.25,2,21.48,21.48,0,0,1-1.61,6.1,23.85,23.85,0,0,1-3.87,6.44,13.07,13.07,0,0,1-6,4.16A45.49,45.49,0,0,1,106.56,135.52Zm110.55,16.61c-1.92,4.21-3.64,6.21-5.1,6-1.14-.2-1.5-1.83-1-4.8a38.38,38.38,0,0,1,3.76-10.69,47,47,0,0,1,8.52-11.87Q220,145.81,217.11,152.13Z"/><path class="cls-3" d="M286.08,70c-1.8-.08-5.16.67-10.06,2.31a95.17,95.17,0,0,0,2-11.91c.2-1.93.33-3.63.38-5.09.29.07.57.12.84.16a31.75,31.75,0,0,0,4.65.65,15.88,15.88,0,0,0,5.33-.7A16.26,16.26,0,0,0,293,53.57c-.38,2.21-.72,4.69-1,7.52a1.41,1.41,0,0,0,.78,1.39,4.35,4.35,0,0,0,2,.52,8.89,8.89,0,0,0,2.18-.17,1.92,1.92,0,0,0,1.27-.68A15.92,15.92,0,0,0,299,60a38.79,38.79,0,0,1,1.66-4.65c.69-1.57.74-1,1.74-3.41.48-1-5.11-1.77-5.47-1.79.26-1.4,4.18-9.56,2.9-12.13-.63-1.28-2.35.62-2.59.86s-.53.56-.83.92a16.71,16.71,0,0,1-1.52,1.68,13.21,13.21,0,0,1-2.36,1.8,15.35,15.35,0,0,1-3.69,1.54,12.44,12.44,0,0,1-3,.54c-.92,0-1.87,0-2.83,0a37.36,37.36,0,0,0-4.67.06A32.6,32.6,0,0,0,271.22,47a18.69,18.69,0,0,0-5.36,2.72,29.17,29.17,0,0,0-4.38,3.95,35.89,35.89,0,0,0-3.29,4.19,29.23,29.23,0,0,0-2.1,3.59,8,8,0,0,0-.77,2.05,3.63,3.63,0,0,0,.21,1.83,1.36,1.36,0,0,0,.75.73,1.24,1.24,0,0,0,.8,0c.24-.08.61-.55,1.12-1.43a34.07,34.07,0,0,1,2.06-2.93,20.36,20.36,0,0,1,3.35-3.35,15.22,15.22,0,0,1,5-2.6,16.28,16.28,0,0,1,3.43-.75c-.11,2.06-.4,4.84-.91,8.21a84.64,84.64,0,0,1-2.92,12.31,31.79,31.79,0,0,0-8.49,5.5,10.57,10.57,0,0,0-2,3.67,27.09,27.09,0,0,0-1.19,4.71,18.59,18.59,0,0,0-.31,3.8c.05.94.25,1.23.61.86a71.79,71.79,0,0,1,7.74-7.71c-.23.6-.45,1.21-.66,1.8-1.74,4.82-3.27,9.31-4.4,13.37a22.91,22.91,0,0,0-.92,10.15q.87,3.39,3.14,3.55a6.28,6.28,0,0,0,4.32-1.38,4.91,4.91,0,0,0,2.23-3.23,4.53,4.53,0,0,0-.16-1.24,13.87,13.87,0,0,1-.37-4.13,41.2,41.2,0,0,1,1.32-8.17q1.13-4.36,2.67-9.32c.79-2.52,1.59-5.19,2.38-8a40.34,40.34,0,0,1,6-2.6,33.25,33.25,0,0,1,3.62-1,2.71,2.71,0,0,0,.75-.19,5.65,5.65,0,0,0,1.12-1.88,12,12,0,0,0,.8-2.65C286.61,70.58,286.48,70.11,286.08,70Z"/><path class="cls-3" d="M407.16,69.06a2.23,2.23,0,0,0-.39-.67c-.15-.17-.28-.16-.38,0a.34.34,0,0,1,0,.12q-.78,2.06-2.3,5.76c-1,2.47-2,4.82-3,7a18,18,0,0,1-2.41,4.25c-.41.24-.73.29-1,.14a1.21,1.21,0,0,1-.5-.72,2.78,2.78,0,0,1-.11-.92,47.91,47.91,0,0,1,1.55-7.85c.84-3.16,1.84-6.65,3-10.43.47-1.56.95-3.17,1.43-4.8a9.21,9.21,0,0,0,.17-5.57,4.93,4.93,0,0,0-2.37-2.8,6.11,6.11,0,0,0-2.79-.73c-.83,0-1.31.36-1.43,1a8.38,8.38,0,0,1-1.84,4.48,10.55,10.55,0,0,1-3.44,2.73,12.36,12.36,0,0,1-3.7,1.23A25.16,25.16,0,0,0,388.82,56a4.68,4.68,0,0,0-.33-2.63,2.81,2.81,0,0,0-1.22-1.13,3.6,3.6,0,0,0-1.93-.38,4.73,4.73,0,0,0-1.81.44c-.52.25-.81.54-.89.88a3.37,3.37,0,0,0,.05.81,11.6,11.6,0,0,1,.09,2.65,44.59,44.59,0,0,1-1,6.6,16.56,16.56,0,0,0-.3,2.16,4,4,0,0,0,.34,2.1,2.82,2.82,0,0,0,1.57,1.7l.12,0c-1,2.21-2.05,4.3-3.07,6.2A38.84,38.84,0,0,1,376,82c-2.43,2.92-4.8,4.6-6.95,5.05a4.42,4.42,0,0,1-5-1.83c-1.16-1.67-1.51-4.23-1.05-7.66a14.54,14.54,0,0,0,8.05-2.46,19.78,19.78,0,0,0,8.19-12.34,14.46,14.46,0,0,0,0-5.45,6.79,6.79,0,0,0-2-3.79,5.3,5.3,0,0,0-4.07-1.19,12.05,12.05,0,0,0-3.57.92,12.26,12.26,0,0,0-3.82,2.48,31.5,31.5,0,0,0-6.43,9,43.37,43.37,0,0,0-3.9,14.21,1.41,1.41,0,0,0,0,.2c-.64,1.57-1.28,3.1-1.92,4.57A16.9,16.9,0,0,1,351,88.22c-.31.28-.62.23-.92-.14a4.56,4.56,0,0,1-.55-2.4,23.84,23.84,0,0,1,.58-5.37c1.65-8.36,3.5-16.21,5.34-23.37q2-7.71,3.19-13.45a31.43,31.43,0,0,0,.93-8.66A9,9,0,0,0,358,30.39a4.59,4.59,0,0,0-3.19-1.88,3.83,3.83,0,0,0-2.6.47,1.66,1.66,0,0,0-.88,1.3v.08c0,.25,0,.71,0,1.37s-.14,1.71-.32,3.15-.49,3.49-.91,6.11-1,6.06-1.77,10.22c-.59,3.23-1.17,6.22-1.71,8.94a5.62,5.62,0,0,0-3.94-3.46c-1.89-.49-3.95.22-6.19,2.15s-4.46,5.48-6.66,10.68a91.42,91.42,0,0,0-4.14,12.55c-.74,2-1.5,3.9-2.28,5.79a45.85,45.85,0,0,1-2.48,5.26,1.8,1.8,0,0,1-.95.78c-.31.07-.51-.21-.59-.82-.17-1.42.55-5.13,2.12-11,.87-3.27,1.6-6,2.23-8.21a59.79,59.79,0,0,0,2.07-8.55,4,4,0,0,0-.93-3.16,4.39,4.39,0,0,0-3.29-1.34c-2,.06-3.22.63-3.54,1.69,0,.14,0,.27-.05.4-.52,1.31-1.25,3.24-2.16,5.77q-1.9,5.25-5.29,14.21c-.46,1.21-.88,2.33-1.27,3.37q-1.38,3.65-2.37,6.23t-2,4.89c-.27-.31-.29-1.37-.06-3.17a74,74,0,0,1,1.9-8.62c.87-3.29,1.61-6.07,2.24-8.26a60.94,60.94,0,0,0,2.07-8.6,3.93,3.93,0,0,0-.93-3.12,4.25,4.25,0,0,0-3.3-1.22c-2,.12-3.23.73-3.54,1.8a2.76,2.76,0,0,0-.06.4l0,.42a16.57,16.57,0,0,1-.16,2c-.11,1-.38,2.66-.8,5-.34,1.81-.85,4.25-1.5,7.26a.36.36,0,0,0-.13.14.21.21,0,0,1,0,.12q-.87,2.44-2.49,6.76t-3.21,8.11c-1.07,2.52-1.87,4-2.42,4.51s-.74.38-1,0-.21-1.53,0-3.32a79.23,79.23,0,0,1,1.85-8.39c.87-3.31,1.64-6.1,2.27-8.32a71.22,71.22,0,0,0,2.07-8.63,3.8,3.8,0,0,0-.94-3.09A4.15,4.15,0,0,0,293.43,68c-2.06.17-3.25.81-3.57,1.89a3,3,0,0,0-.06.4l0,.42a17.47,17.47,0,0,1-.14,2c-.1,1-.36,2.66-.79,5s-1.14,5.58-2.08,9.8c-.31,1.37-.61,2.73-.93,4a61.53,61.53,0,0,0-1.77,9.24c-.24,2.62.4,4.57,1.85,5.9a4,4,0,0,0,2.91,1.1q1.71,0,3.88-3A52,52,0,0,0,297.65,94c.11-.29.2-.56.3-.85-.25,1.36-.44,2.64-.54,3.81-.25,2.62.39,4.62,1.88,5.87,2.27,1.91,4.47,1.35,6.41-1.63a78.07,78.07,0,0,0,4.42-10.87c2-5.54,4-11.53,6.12-17.8.21-.6.41-1.21.6-1.82-.42,2.24-1.06,5.35-1.95,9.24-.31,1.37-.63,2.71-.95,4a61.75,61.75,0,0,0-1.76,9.19c-.25,2.63.38,4.62,1.86,6a3.93,3.93,0,0,0,2.9,1.28v0l.12,0h.08a2.59,2.59,0,0,0,.45-.14h0l.08,0a6.72,6.72,0,0,0,2.86-2.55,43.9,43.9,0,0,0,4-7.94,10,10,0,0,0,.22,3.36,6.17,6.17,0,0,0,1.65,2.78,5.41,5.41,0,0,0,3.08,1.57,5.16,5.16,0,0,0,3.91-1.29A21.09,21.09,0,0,0,337.88,91a49.19,49.19,0,0,0,4.34-8.47,27.38,27.38,0,0,0-.41,7.88c.28,1.78.82,3,1.61,3.55a3.88,3.88,0,0,0,2.69.77,6.64,6.64,0,0,0,2.93-1,7.94,7.94,0,0,0,2.61-2.59,56.55,56.55,0,0,0,3.8-7.64,12.16,12.16,0,0,0,2,6A7.69,7.69,0,0,0,365,92.87,13.49,13.49,0,0,0,370.81,91a19.57,19.57,0,0,0,4.65-4,33.2,33.2,0,0,0,3.67-5.22,60.58,60.58,0,0,0,2.85-5.7c.83-1.91,1.59-3.71,2.23-5.37.19-.51.38-1,.57-1.46a6,6,0,0,0,2.12-.86A25.85,25.85,0,0,0,391.19,65c1.47-1.42,2.8-2.82,4-4.2q-1.69,5-3.31,11.21A60.08,60.08,0,0,0,390,82.14a14.06,14.06,0,0,0,1,6.77,4.29,4.29,0,0,0,4.29,2.69c1.22,0,2.47-.8,3.66-2.29a33.47,33.47,0,0,0,4.77-9.08q2.23-5.9,3.62-10.51A1.29,1.29,0,0,0,407.16,69.06Zm-38.93-6.87c2-3.38,3.81-5.24,5.34-5.61a1,1,0,0,1,1.2.7,4.9,4.9,0,0,1,.24,2,21.12,21.12,0,0,1-5.42,11.8,11.23,11.23,0,0,1-6,3.41A40.91,40.91,0,0,1,368.23,62.19Zm-23,4.82c-.51,2.53-1,5-1.49,7.45a62,62,0,0,1-5.22,11.63c-1.94,3.25-3.46,5-4.58,5.31s-1.47-1.2-1.38-4.18,1.27-7.91,3.62-14.5A36.44,36.44,0,0,1,340.23,64c1.24-1.67,2.31-2.47,3.19-2.34a2.93,2.93,0,0,1,1.51.65,4.7,4.7,0,0,1,1,1.09C345.66,64.66,345.43,65.85,345.19,67Z"/><path class="cls-4" d="M65.92,138.53a9,9,0,0,0-6.66-3.65A50.65,50.65,0,0,0,63.71,129a27.45,27.45,0,0,0,3.25-7,18.13,18.13,0,0,0,.48-8,12.13,12.13,0,0,0-4.57-7.67,19.13,19.13,0,0,0-9-3.63,30,30,0,0,0-11,.43,28.53,28.53,0,0,0-10.82,4.77,16.35,16.35,0,0,0-7.34,14.58,17.54,17.54,0,0,0,1.3,5.93c.71,1.57,1.28,2.36,1.72,2.39.2,0,.46-.24.79-.76s.72-1.22,1.18-2.1c.56-1.08,1.26-2.34,2.09-3.75a40.09,40.09,0,0,1,3-4.29,27.11,27.11,0,0,1,4-4.06A21.17,21.17,0,0,1,44,112.68a18.7,18.7,0,0,1,6.57-1.33c3.6-.12,6.3.58,8.12,2.18A7.38,7.38,0,0,1,61.14,120,15.19,15.19,0,0,1,60,124.82,23.64,23.64,0,0,1,57.69,129c-.9,1.32-1.86,2.62-2.87,3.88s-2,2.57-2.87,3.9a12.77,12.77,0,0,0-1.87,3.76,6,6,0,0,0-.23,2.62,3.12,3.12,0,0,0,.66,1.52c.3.34.55.5.73.49a.48.48,0,0,0,.39-.19q.13-.18.42-.66a39.34,39.34,0,0,1,2.36-3.68c.26-.35.56-.72.88-1.13a4.51,4.51,0,0,1,2.56,1.34,7.66,7.66,0,0,1,1.84,3.33,15.26,15.26,0,0,1,.42,5.47A26.07,26.07,0,0,1,58,158.23a25.5,25.5,0,0,1-4.43,7,15.75,15.75,0,0,1-5.76,4.16,8.89,8.89,0,0,1-6.18.18c-1.86-.61-2.82-2.49-2.84-5.65s1-8,3.07-14.42c1.32-4.09,2.59-7.66,3.71-10.64,1-2.61,1.76-5,2.4-7a24.78,24.78,0,0,0,1.13-5.48q.19-3.54-1.1-5.2a4.77,4.77,0,0,0-3-2,4.22,4.22,0,0,0-2.86.35,1.35,1.35,0,0,0-.74,1.8q.43,1.4-.87,6.12T37.34,138c-.86,2.66-1.64,5.2-2.35,7.59a63.4,63.4,0,0,0-3,15.86c-.13,4.42.87,7.87,3,10.29s5.68,3.72,10.59,3.6a20.25,20.25,0,0,0,10.84-3.47,24.81,24.81,0,0,0,8.08-9,32.51,32.51,0,0,0,3.72-13.39,21.64,21.64,0,0,0-.37-6.48A11.79,11.79,0,0,0,65.92,138.53Z"/><path class="cls-4" d="M246,96.46a.27.27,0,0,0-.33.18c-.4,1-1.18,2.85-2.33,5.49s-2.5,5.49-4.07,8.56a62.9,62.9,0,0,1-4.8,8q.68-3.52,1.26-6.94Q239.06,95.6,239,91a5.71,5.71,0,0,0-1.28-4,3.86,3.86,0,0,0-2.8-1.2,5.52,5.52,0,0,0-2.8.7,2.25,2.25,0,0,0-1.31,1.61q0,.92-.09,1.92-2.85,9.51-6.8,19.62a143.92,143.92,0,0,1-6.35,14.54c-.27-.29-.29-1.33-.07-3.14a79.13,79.13,0,0,1,1.92-8.74c.87-3.35,1.62-6.19,2.25-8.43a64.62,64.62,0,0,0,2.08-8.74,3.53,3.53,0,0,0-.94-3,4,4,0,0,0-3.33-.89c-2.06.32-3.24,1-3.56,2.11,0,.14,0,.27-.07.41a1.91,1.91,0,0,0,0,.42,18.57,18.57,0,0,1-.15,2c-.12,1-.39,2.67-.82,5s-1.1,5.65-2,9.87c-.08.37-.17.72-.26,1.08-.33.92-.68,1.9-1.09,3q-1.55,4.23-3.11,8.07a28.56,28.56,0,0,1-2.48,5.1c-.42.39-.75.57-1,.51a.7.7,0,0,1-.51-.5,2.09,2.09,0,0,1-.12-.85,54.24,54.24,0,0,1,1.58-8.23q1.29-5.1,3-11.31c.48-1.7,1-3.45,1.46-5.24q1-3.81.16-5.46A2.85,2.85,0,0,0,208,95.5a6.55,6.55,0,0,0-2.87.37,2.07,2.07,0,0,0-1.47,1.55,11.39,11.39,0,0,1-1.88,5,17.92,17.92,0,0,1-3.53,3.91,18.4,18.4,0,0,1-3.8,2.48,28.77,28.77,0,0,0,1.27-5.6,3.72,3.72,0,0,0-.35-2.46,1.79,1.79,0,0,0-1.25-.68,3.78,3.78,0,0,0-2,.25,6.88,6.88,0,0,0-1.86,1,2.18,2.18,0,0,0-.91,1.14,3.09,3.09,0,0,0,.05.78,9.88,9.88,0,0,1,.1,2.56,48,48,0,0,1-1,6.77,16.27,16.27,0,0,0-.3,2.2,3.21,3.21,0,0,0,.34,2,1.86,1.86,0,0,0,1.62,1.15l.12,0c-1.05,2.49-2.09,4.85-3.13,7a54.4,54.4,0,0,1-4.49,7.73c-2.48,3.58-4.9,5.88-7.09,6.88s-3.87.82-5.05-.55-1.54-3.79-1.08-7.28a18.5,18.5,0,0,0,8.2-4.43,27.55,27.55,0,0,0,5.63-7.17,24.17,24.17,0,0,0,2.71-7.23,13.5,13.5,0,0,0,0-5.35,4.52,4.52,0,0,0-2.09-3.1,5,5,0,0,0-4.15,0,16.92,16.92,0,0,0-3.64,1.83,18.14,18.14,0,0,0-3.89,3.38,42.87,42.87,0,0,0-6.52,10.26,46.68,46.68,0,0,0-3.67,12.8,20.44,20.44,0,0,1-1.73,2.18,5.5,5.5,0,0,1-4.28,2,1.68,1.68,0,0,1-.94-.28,117.64,117.64,0,0,0,5.28-11,54.15,54.15,0,0,0,3.05-9.36,3.14,3.14,0,0,0-1.29-3.22,6,6,0,0,0-3.57-1.09,3.48,3.48,0,0,0-3,1.33,20.32,20.32,0,0,0-3,7.34,43.88,43.88,0,0,0-1.21,9.7c-1.22,3.31-2.93,7.29-5.14,11.84a30.22,30.22,0,0,1-4.06,6.65c-1.16,1.26-2,1.69-2.44,1.29-.32-.34-.31-1.4,0-3.18a66.45,66.45,0,0,1,2.69-8.78c1.56-4.32,2.75-7.76,3.5-10.27a34.7,34.7,0,0,0,1.35-6.84,5.1,5.1,0,0,0-.74-3.39,3.37,3.37,0,0,0-3.09-1.26c-2.07.19-3.26.82-3.58,1.9a6.4,6.4,0,0,0,0,1,26,26,0,0,1-.23,4,74.17,74.17,0,0,1-2,9.52h0v0q-1.32,4.51-3.17,9.31a56,56,0,0,1-3.76,8.09c-1.28,2.2-2.43,3.29-3.46,3.29-.66,0-1-.9-.87-2.68a57.73,57.73,0,0,1,1.75-9.39c.58-2.42,1.18-4.85,1.83-7.23,1.1-4.09,1.86-7.16,2.19-9.16.28-2.56-1-4-3.91-4.32a4.78,4.78,0,0,0-2.46.45,2.12,2.12,0,0,0-1.18,1.26,1.56,1.56,0,0,0,0,.35c0,.1,0,.2,0,.3s0,.59,0,1.1a20,20,0,0,1-.28,2.47c-.17,1.14-.48,2.75-.91,4.83s-1,4.81-1.84,8.1c-.47,1.91-.89,3.74-1.25,5.51l-.12.25a48.33,48.33,0,0,1-4.47,7.35c-2.47,3.36-4.86,5.42-7,6.19s-3.84.39-5-1.13-1.52-4-1.06-7.48a15.84,15.84,0,0,0,8.13-3.52,23.67,23.67,0,0,0,5.59-6.64,22.19,22.19,0,0,0,2.7-7,13.85,13.85,0,0,0,0-5.38,5.16,5.16,0,0,0-2.07-3.33,5.1,5.1,0,0,0-4.13-.47,16,16,0,0,0-7.46,4.41,36.83,36.83,0,0,0-6.47,9.55,43.35,43.35,0,0,0-3.68,12.73c-.87,2.23-1.74,4.39-2.61,6.43a22.57,22.57,0,0,1-2.46,4.73c-.4.33-.73.45-1,.35a.88.88,0,0,1-.5-.6,2.31,2.31,0,0,1-.12-.88,52.49,52.49,0,0,1,1.57-8.06q1.27-4.93,3-10.93c.47-1.63.95-3.32,1.45-5.05.64-2.47.69-4.3.16-5.51a3.56,3.56,0,0,0-2.42-2.2,6,6,0,0,0-2.83-.14,1.64,1.64,0,0,0-1.46,1.3,9.68,9.68,0,0,1-1.85,4.75A13.13,13.13,0,0,1,82.72,138,13.78,13.78,0,0,1,79,139.71a27,27,0,0,0,1.25-5.43,4.25,4.25,0,0,0-.34-2.56,2.3,2.3,0,0,0-1.23-1,3.69,3.69,0,0,0-1.94-.17,5.55,5.55,0,0,0-1.83.62,1.69,1.69,0,0,0-.9,1,3.27,3.27,0,0,0,.05.8,10.26,10.26,0,0,1,.09,2.63,44.4,44.4,0,0,1-1,6.65,16.73,16.73,0,0,0-.3,2.17,3.9,3.9,0,0,0,.34,2.06A2.47,2.47,0,0,0,74.73,148c1,.23,2.16-.16,3.57-1.19a29.38,29.38,0,0,0,4.33-4q2.24-2.44,4.06-4.82-1.72,5.26-3.35,11.64a62.69,62.69,0,0,0-1.94,10.3,12.56,12.56,0,0,0,1,6.53c.83,1.66,2.3,2.3,4.35,1.86a6.79,6.79,0,0,0,3.71-3,40.65,40.65,0,0,0,4.45-9A11.7,11.7,0,0,0,97,162.69c1.77,2.32,4.29,3.15,7.54,2.44a14.88,14.88,0,0,0,5.92-2.7,24.27,24.27,0,0,0,4.7-4.74,40.37,40.37,0,0,0,3.73-5.88c.15-.29.28-.58.42-.86a22.47,22.47,0,0,0-.09,3.71,5.58,5.58,0,0,0,1.78,4.11,4.81,4.81,0,0,0,3.51,1.07c1.33-.09,2.81-1.13,4.44-3.1s3.4-5.37,5.3-10.18a16.92,16.92,0,0,0-.08,5.29,4.46,4.46,0,0,0,1.91,3.21,4.91,4.91,0,0,0,4.15.75,6.41,6.41,0,0,0,3.22-2.65,64,64,0,0,0,10.19-14,2.09,2.09,0,0,0,1.39.44,8.32,8.32,0,0,0,6-2.91c.25-.28.47-.56.69-.84-.22,4.06.47,7.05,2.11,9q2.7,3.12,7.62,1.5a17.52,17.52,0,0,0,6-3.34,28,28,0,0,0,4.74-5.19,48,48,0,0,0,3.75-6.2c1.09-2.18,2.07-4.33,2.91-6.46s1.62-4.13,2.27-6c.2-.55.39-1.09.58-1.6A9.15,9.15,0,0,0,193.8,116a41.19,41.19,0,0,0,4.4-4.83q2.25-2.85,4.1-5.54-1.73,5.52-3.37,12.12a67.25,67.25,0,0,0-2,10.54,11,11,0,0,0,1,6.23c.86,1.47,2.35,1.82,4.42,1a8.78,8.78,0,0,0,3.76-3.65,46.08,46.08,0,0,0,4-8.33c0,.32-.09.67-.12,1-.24,2.62.4,4.56,1.9,5.68,2.28,1.71,4.48.95,6.46-2.21a87.68,87.68,0,0,0,5.2-11.65Q226.85,108,230,98.16c-.57,4.61-1.43,10.67-2.76,17.79-.33,1.77-.67,3.48-1,5.06-.43,2.37-.77,4.07-1,5.08a48.75,48.75,0,0,0-10,12.41A46.85,46.85,0,0,0,210,151.59c-.88,4.11-.77,7.24.36,9.39s3.37,2.6,6.76,1.37q3.66-1.62,6.68-7.43a78.51,78.51,0,0,0,5.44-14.18q2.41-8.37,4.29-17.6a58.61,58.61,0,0,0,6.61-10.4q2.87-5.71,4.55-10.16a55.27,55.27,0,0,0,1.87-5.35.62.62,0,0,0-.15-.53A.68.68,0,0,0,246,96.46Zm-71.26,18.92q3.09-5.73,5.43-6.9c.6-.22,1-.11,1.22.35a4.22,4.22,0,0,1,.26,1.92A23,23,0,0,1,180,117a27.22,27.22,0,0,1-3.9,6.8,15.63,15.63,0,0,1-6.09,4.83A49.65,49.65,0,0,1,174.72,115.38Zm-66.89,19c2-3.62,3.84-5.74,5.39-6.36a.92.92,0,0,1,1.22.48,4.52,4.52,0,0,1,.25,2,21.82,21.82,0,0,1-1.61,6.1,24.1,24.1,0,0,1-3.87,6.44,13.13,13.13,0,0,1-6,4.16A45.49,45.49,0,0,1,107.83,134.33Zm110.55,16.6c-1.91,4.21-3.63,6.22-5.1,6-1.14-.21-1.5-1.83-1-4.8A38.38,38.38,0,0,1,216,141.4a47.2,47.2,0,0,1,8.52-11.88Q221.27,144.63,218.38,150.93Z"/><path class="cls-4" d="M287.36,68.84c-1.81-.08-5.16.67-10.06,2.31a99,99,0,0,0,2-11.91c.2-1.93.32-3.63.38-5.09.29.06.57.12.84.16a30.11,30.11,0,0,0,4.65.64,15.33,15.33,0,0,0,5.32-.7,19.42,19.42,0,0,0,4.06-1.77c-.46,2.27-1,4.71-1.24,7.42a1.42,1.42,0,0,0,.79,1.39,4.56,4.56,0,0,0,2,.52,8.41,8.41,0,0,0,2.18-.18,1.85,1.85,0,0,0,1.27-.67,15.11,15.11,0,0,0,.77-2.19c.34-1.15.9-2.71,1.67-4.66s-7.1-1.6-7.46-1.63c2.65-3,6-12.33,5.86-13.4-.17-1.42-.53-2.06-1.09-1.9a1.8,1.8,0,0,0-.74.47,11.85,11.85,0,0,0-.82.92,18.25,18.25,0,0,1-1.53,1.68,13.31,13.31,0,0,1-2.36,1.8,15.43,15.43,0,0,1-3.68,1.54,12.55,12.55,0,0,1-3,.53c-.91,0-1.87.05-2.82,0a37.51,37.51,0,0,0-4.68.06,31.54,31.54,0,0,0-7,1.54,18.5,18.5,0,0,0-5.22,2.56,28.7,28.7,0,0,0-4.66,4.15,37,37,0,0,0-3.29,4.19,28.3,28.3,0,0,0-2.09,3.59,8.21,8.21,0,0,0-.78,2,3.63,3.63,0,0,0,.21,1.83,1.37,1.37,0,0,0,.76.73,1.21,1.21,0,0,0,.79,0c.24-.08.62-.56,1.12-1.43a34.07,34.07,0,0,1,2.06-2.93,20.06,20.06,0,0,1,3.36-3.35,15.47,15.47,0,0,1,5-2.61,16.94,16.94,0,0,1,3.44-.74c-.12,2.06-.4,4.84-.92,8.21a81.7,81.7,0,0,1-2.92,12.3A32.12,32.12,0,0,0,261,79.82a10.9,10.9,0,0,0-2,3.67,28,28,0,0,0-1.19,4.71,19.33,19.33,0,0,0-.31,3.8c.05.94.25,1.23.61.86a71.79,71.79,0,0,1,7.74-7.71c-.23.6-.44,1.21-.65,1.8-1.74,4.82-3.28,9.31-4.41,13.36s-1.43,7.44-.92,10.16q.87,3.39,3.14,3.55a6.38,6.38,0,0,0,4.32-1.38,3.72,3.72,0,0,0,2.08-4.47,13.82,13.82,0,0,1-.38-4.13,42,42,0,0,1,1.32-8.18c.75-2.9,1.64-6,2.68-9.31.79-2.52,1.58-5.19,2.38-8a40.29,40.29,0,0,1,6-2.6,33.25,33.25,0,0,1,3.62-1,4.07,4.07,0,0,0,.76-.19,5.8,5.8,0,0,0,1.11-1.89,11.76,11.76,0,0,0,.8-2.64C287.88,69.39,287.75,68.92,287.36,68.84Z"/><path class="cls-4" d="M408.43,67.87a1.88,1.88,0,0,0-.39-.67c-.15-.17-.28-.16-.38,0a.16.16,0,0,1,0,.11c-.52,1.37-1.29,3.29-2.29,5.77s-2,4.81-3,7a18.23,18.23,0,0,1-2.42,4.26c-.4.24-.72.29-1,.14a1.2,1.2,0,0,1-.49-.72,2.34,2.34,0,0,1-.11-.92A47.53,47.53,0,0,1,399.85,75c.84-3.16,1.85-6.65,3-10.43.47-1.56.94-3.17,1.43-4.81a9.26,9.26,0,0,0,.17-5.56,4.91,4.91,0,0,0-2.38-2.8,6.26,6.26,0,0,0-2.78-.74c-.84,0-1.32.37-1.44,1A8.45,8.45,0,0,1,396,56.2a10.72,10.72,0,0,1-3.45,2.73,12.52,12.52,0,0,1-3.7,1.22,25.12,25.12,0,0,0,1.25-5.31,4.65,4.65,0,0,0-.34-2.63,2.7,2.7,0,0,0-1.22-1.13,3.65,3.65,0,0,0-1.92-.39,5.12,5.12,0,0,0-1.82.44,1.48,1.48,0,0,0-.89.89,3.37,3.37,0,0,0,0,.81,11.56,11.56,0,0,1,.09,2.65,43.26,43.26,0,0,1-1,6.6,18.47,18.47,0,0,0-.3,2.16,4.09,4.09,0,0,0,.34,2.1,2.83,2.83,0,0,0,1.58,1.7l.11,0c-1,2.21-2.05,4.3-3.06,6.19a38.51,38.51,0,0,1-4.4,6.55c-2.44,2.92-4.81,4.6-7,5a4.42,4.42,0,0,1-5-1.83c-1.15-1.68-1.5-4.23-1-7.67a14.56,14.56,0,0,0,8.05-2.45,19.09,19.09,0,0,0,5.52-5.74,18.81,18.81,0,0,0,2.66-6.6,14.53,14.53,0,0,0,0-5.46,6.76,6.76,0,0,0-2-3.78,5.31,5.31,0,0,0-4.08-1.19,11.87,11.87,0,0,0-3.56.91,12.34,12.34,0,0,0-3.83,2.49,31.35,31.35,0,0,0-6.42,9,43.37,43.37,0,0,0-3.9,14.21c0,.07,0,.13,0,.2-.63,1.57-1.27,3.1-1.92,4.57A17.44,17.44,0,0,1,352.3,87c-.32.27-.62.23-.93-.14a4.58,4.58,0,0,1-.54-2.4,23.6,23.6,0,0,1,.57-5.37c1.66-8.37,3.5-16.22,5.35-23.37q2-7.71,3.18-13.45a31.56,31.56,0,0,0,.94-8.66,9.14,9.14,0,0,0-1.65-4.45A4.61,4.61,0,0,0,356,27.31a3.87,3.87,0,0,0-2.6.48,1.62,1.62,0,0,0-.88,1.3v.08a13.31,13.31,0,0,1,0,1.36c0,.66-.14,1.71-.32,3.16s-.48,3.49-.91,6.11-1,6.06-1.76,10.22c-.59,3.22-1.18,6.22-1.71,8.94a5.64,5.64,0,0,0-3.95-3.46c-1.88-.5-3.94.22-6.18,2.14s-4.46,5.49-6.66,10.68a91.94,91.94,0,0,0-4.14,12.56c-.75,2-1.5,3.9-2.29,5.78a43.43,43.43,0,0,1-2.48,5.26,1.75,1.75,0,0,1-.95.79c-.3.07-.5-.21-.58-.83-.18-1.41.54-5.12,2.11-11,.87-3.27,1.61-6,2.24-8.2A59.65,59.65,0,0,0,327,64.08a4,4,0,0,0-.93-3.16,4.34,4.34,0,0,0-3.29-1.34c-2,.05-3.21.62-3.53,1.69a2.85,2.85,0,0,0-.06.39q-.78,2-2.16,5.78-1.91,5.25-5.29,14.21L310.48,85q-1.37,3.66-2.37,6.24t-2,4.88c-.27-.31-.29-1.36-.07-3.16A76.87,76.87,0,0,1,308,84.35c.87-3.29,1.61-6.07,2.24-8.26a62.43,62.43,0,0,0,2.07-8.6,3.87,3.87,0,0,0-.94-3.12,4.25,4.25,0,0,0-3.3-1.22q-3.06.18-3.54,1.8a2.63,2.63,0,0,0-.06.39l0,.43a18.41,18.41,0,0,1-.15,2q-.16,1.51-.81,5c-.34,1.82-.84,4.26-1.5,7.27a.31.31,0,0,0-.12.13.4.4,0,0,1,0,.13c-.58,1.62-1.41,3.88-2.48,6.76s-2.15,5.58-3.21,8.1-1.88,4-2.43,4.52-.73.38-1,0a7.41,7.41,0,0,1,0-3.32,83.07,83.07,0,0,1,1.85-8.39c.87-3.3,1.64-6.1,2.27-8.31A67.11,67.11,0,0,0,299,71a3.82,3.82,0,0,0-.93-3.09,4.22,4.22,0,0,0-3.31-1.13c-2.07.18-3.26.82-3.58,1.9,0,.13,0,.27-.05.39l0,.43a20.32,20.32,0,0,1-.14,2c-.11,1-.37,2.66-.8,5S289,82.05,288,86.27c-.3,1.37-.6,2.73-.92,4a61.23,61.23,0,0,0-1.78,9.24c-.24,2.62.4,4.57,1.85,5.9a4.12,4.12,0,0,0,2.92,1.1q1.69,0,3.87-3a52.54,52.54,0,0,0,5-10.67c.1-.29.19-.56.3-.85-.25,1.36-.44,2.64-.55,3.81-.24,2.61.39,4.62,1.88,5.87C302.84,103.58,305,103,307,100a79.56,79.56,0,0,0,4.43-10.87c2-5.54,4-11.53,6.12-17.8.2-.61.41-1.21.6-1.82-.42,2.24-1.06,5.35-1.95,9.24-.32,1.36-.64,2.71-1,4a63.42,63.42,0,0,0-1.76,9.2c-.25,2.63.38,4.62,1.86,6a3.89,3.89,0,0,0,2.9,1.27v0l.11,0,.06,0h0a3.88,3.88,0,0,0,.45-.14h0l.09,0a6.9,6.9,0,0,0,2.85-2.55,44.87,44.87,0,0,0,4-7.94,10.32,10.32,0,0,0,.21,3.36,6.23,6.23,0,0,0,1.65,2.77,5.42,5.42,0,0,0,3.08,1.58A5.21,5.21,0,0,0,334.68,95a21.08,21.08,0,0,0,4.47-5.13,48.5,48.5,0,0,0,4.34-8.47,27.33,27.33,0,0,0-.41,7.87c.28,1.79.82,3,1.62,3.56a3.91,3.91,0,0,0,2.69.77,6.68,6.68,0,0,0,2.93-1A8.24,8.24,0,0,0,352.93,90a56.19,56.19,0,0,0,3.79-7.65,12.23,12.23,0,0,0,2,6,7.68,7.68,0,0,0,7.48,3.27,13.39,13.39,0,0,0,5.85-1.85,19.41,19.41,0,0,0,4.65-4,33,33,0,0,0,3.67-5.22,58.36,58.36,0,0,0,2.86-5.7c.83-1.92,1.59-3.71,2.23-5.38l.56-1.45a5.92,5.92,0,0,0,2.12-.87,25.85,25.85,0,0,0,4.29-3.42c1.47-1.42,2.81-2.81,4-4.19q-1.7,5-3.31,11.21A59.53,59.53,0,0,0,391.23,81a14,14,0,0,0,1,6.77,4.28,4.28,0,0,0,4.29,2.69c1.22,0,2.46-.81,3.66-2.29A34,34,0,0,0,404.94,79q2.22-5.88,3.61-10.51A1.26,1.26,0,0,0,408.43,67.87ZM369.51,61q3-5.07,5.33-5.61a1.05,1.05,0,0,1,1.2.69,5,5,0,0,1,.25,2,19.61,19.61,0,0,1-1.6,5.9,19.9,19.9,0,0,1-3.83,5.9,11.32,11.32,0,0,1-6,3.41A40.91,40.91,0,0,1,369.51,61Zm-23.05,4.82c-.51,2.53-1,5-1.49,7.45a61.63,61.63,0,0,1-5.22,11.62q-2.89,4.89-4.58,5.32-1.5.29-1.38-4.18c.09-3,1.27-7.91,3.63-14.51a36.13,36.13,0,0,1,4.09-8.67c1.23-1.67,2.31-2.47,3.18-2.35a3,3,0,0,1,1.52.66,4.45,4.45,0,0,1,1,1.09C346.93,63.46,346.7,64.66,346.46,65.82Z"/></g><g id="hop_icon" data-name="hop icon"><path class="cls-2" d="M387.83,191.75c-.49,1.26-.41,2.86-2.07,3.34.33,2.21.74,4.34.94,6.5a15,15,0,0,1-1.36,7.69,6.32,6.32,0,0,1-3.67,3.25c-3.91,1.57-7.83,1.06-11.76.1-.4-.09-.79-.23-1.3-.39-.55,2.12-2.32,2.12-4,2.24-4.88.36-9.08-1.55-13.1-4a9.14,9.14,0,0,0-4-1.67c-4-.43-7.34-2.61-10.14-5.45-2-2-3.71-4.27-5.59-6.47-1.86.79-2.55.5-3.46-1.47-3.29-7.11-2.68-14.22.35-21.16,1.53-3.52,3.63-6.8,5.39-10l-9-9.56-9.87,9.87c.71,1.08,1.6,2.35,2.41,3.67a36.25,36.25,0,0,1,5.66,15.13,22.62,22.62,0,0,1-2.13,12.85A1.92,1.92,0,0,1,318,197c-.28-.17-.54-.35-.82-.53-1.26,1.63-2.41,3.29-3.72,4.8-3.12,3.57-6.74,6.54-11.56,7.26a11.3,11.3,0,0,0-4.47,1.87c-3.44,2.11-7.05,3.78-11.17,3.88a14.2,14.2,0,0,1-3.91-.38c-.71-.19-1.26-1-2.08-1.68-1.31.26-3,.7-4.66.89a17.93,17.93,0,0,1-7.45-.54c-3.43-1.08-4.78-3.62-5.37-6.84a21.44,21.44,0,0,1,.55-9c.14-.55.27-1.1.44-1.77-1.74-.31-2-1.62-2.27-3-.69-4.2.7-7.95,2.44-11.63.25-.52.54-1,.8-1.53a19.25,19.25,0,0,0,2.45-6c.77-4.53,3.76-8,7.19-10.92,1.46-1.26,3.05-2.37,4.6-3.55-.55-2.14-.19-2.81,2-3.7a25.14,25.14,0,0,1,20.05.34,107.92,107.92,0,0,1,9.64,5.19c.5.28.95.63,1.69,1.13.58-.68,1.12-1.41,1.76-2.06,2.63-2.66,5.27-5.33,7.95-7.94a3,3,0,0,0,1-2.37c-.06-4.32,0-8.65,0-13,0-1.55.56-2.29,1.7-2.45,1.6-.22,2.52.61,2.53,2.37,0,3.87.12,7.75-.05,11.61a5.53,5.53,0,0,0,2,4.8c2.7,2.41,5.21,5,7.8,7.58.29.28.6.54.77.7,2.83-1.65,5.48-3.41,8.31-4.8,5.28-2.61,10.86-4.13,16.82-3.19a31.39,31.39,0,0,1,5.7,1.54c2.81,1,3.15,2.09,1.8,4.51,2.11,1.86,4.31,3.6,6.26,5.57,2.73,2.76,5.07,6,5.42,9.89.19,2.18,1.27,3.6,2.24,5.24a28.89,28.89,0,0,1,3.49,9.55Zm-103.43-34c3.6,4.3,7.43,7.54,12.76,8.52,2.67.49,3.15,1.55,2.34,4.19a31.45,31.45,0,0,0-1.16,6c-.18,1.57.28,1.93,1.87,1.6,2.05-.41,4.08-1,6.08-1.55,1.74-.52,3,.06,3.45,1.84.24.91.32,1.87.59,2.77,1.25,4.18,4,7.3,7.2,10.12a1.47,1.47,0,0,0,.52.19c2.95-7.47-.58-19-7.58-25.69S294.85,155.49,284.4,157.73Zm47.2,33.54c4.32-3.58,7.5-7.5,8.45-12.87.47-2.67,1.58-3.18,4.18-2.33a48.09,48.09,0,0,0,6.25,1.29c.86.15,1.23-.26,1.23-1.2a15.65,15.65,0,0,0-1.23-6.37c-.9-2.11-.19-3.55,2.07-3.95,5.06-.9,8.84-3.81,12.18-7.46a4.45,4.45,0,0,0,.45-.91c-9.95-2-18.17,1.33-25.66,7.3C333.46,172.46,329.1,180.65,331.6,191.27Zm-53,2.61a28.18,28.18,0,0,1-10.06,1.53,1,1,0,0,0-.81.55c-1,3.16-1.63,6.36-.74,9.69a3.71,3.71,0,0,0,2.88,2.87,16.51,16.51,0,0,0,9.56-.76c.29-.1.52-.73.56-1.14.22-2,.27-4.1.55-6.13a28.54,28.54,0,0,1,1-3.55A3.71,3.71,0,0,1,278.64,193.88Zm89.44,3.22a2.75,2.75,0,0,0,0,.58,29.22,29.22,0,0,1,1.22,9.52c0,.28.43.75.75.87a18.2,18.2,0,0,0,8.15.94c2.57-.29,3.63-1.15,4.24-3.55.76-3,.14-5.87-.51-8.77-.18-.83-.58-1-1.35-1.06-1.68-.07-3.38-.14-5-.37s-3-.67-4.58-1A3.51,3.51,0,0,1,368.08,197.1Zm-83.19,12.56c.26.05.38.09.5.1,4.74.19,8.41-2.16,11.86-5a1,1,0,0,0,.23-.87c-.51-2.26-1.08-4.51-1.67-6.93a3,3,0,0,1-3.44-2.05,41,41,0,0,1-4.54,1.52,2.86,2.86,0,0,0-2.32,2.21C284.32,202.24,284.46,205.91,284.89,209.66Zm83.84-26a31.87,31.87,0,0,1,1.47,4.31,3.2,3.2,0,0,0,2.51,2.62c3.09,1,6.24.75,9.41.72,1.33,0,1.58-.55,1.52-1.69a17.28,17.28,0,0,0-3.45-9c-1.46-2.1-1.47-2-3.92-1.42-1.77.44-3.6.66-5.51,1A3,3,0,0,1,368.73,183.62Zm-88.35-.43c-1.09-.43-2-1.09-1.89-2.49.09-.95-.37-1.11-1.21-1.23-2-.3-3.92-.8-5.9-1.14a1.38,1.38,0,0,0-1.17.43,74.84,74.84,0,0,0-3.72,6.51,9.62,9.62,0,0,0-.91,5.4c.7.08,1.31.18,1.92.22a22.48,22.48,0,0,0,9.26-.9c.78-.28,1.63-.46,1.92-1.51C279.16,186.74,279.78,185,280.38,183.19Zm73.25,14.56c-.64,2.5-1.25,4.78-1.78,7.08-.06.26.27.76.55.93,1.73,1,3.44,2.11,5.26,3a13.07,13.07,0,0,0,6.85,1.47c.44-3.73.62-7.36-.69-10.9a2.82,2.82,0,0,0-1.17-1.6c-1.81-.74-3.71-1.26-5.64-1.88C356.52,197.66,355.06,197.89,353.63,197.75Zm-12.31-10a49,49,0,0,0,5.28,3.47,38.11,38.11,0,0,0,5.68,2c.72.23,1.1-.1,1.24-.9a15.37,15.37,0,0,0-.77-8.25c-.8-2-.79-2-2.93-2.08a12.24,12.24,0,0,1-1.6-.07c-1.32-.21-2.64-.46-3.83-.67C343.38,183.36,342.42,185.4,341.32,187.75ZM288.06,167.5a40.88,40.88,0,0,0-3.07,4.6,59.73,59.73,0,0,0-2.38,6.31c-.17.49-.21,1.06.6,1.2a15.57,15.57,0,0,0,9.73-1.34,1.26,1.26,0,0,0,.66-.76c.3-2.35.54-4.7.8-7Zm74.38,12.82.08-.21c1-.13,2-.28,3.06-.38s1.14-.47,1-1.38c-.59-4.12-2.76-7.41-5.36-10.49-.17-.2-.82-.16-1.16,0-1.33.53-2.61,1.19-3.95,1.71-.75.3-.9.61-.77,1.46.33,2.17.43,4.38.69,6.57,0,.39.34,1,.64,1.09C358.58,179.28,360.51,179.78,362.44,180.32Zm-66.82,8.52.23.1c.1,1,.22,2,.32,3.05.05.59.28.92.95.78.48-.1,1-.12,1.45-.23a21.44,21.44,0,0,0,9.39-5.21,1.34,1.34,0,0,0,.2-1.21c-.53-1.33-1.23-2.59-1.76-3.93-.3-.74-.66-.78-1.41-.67-2.18.3-4.38.42-6.57.69a1.57,1.57,0,0,0-1.15.75C296.65,184.9,296.16,186.88,295.62,188.84Zm51.56,15.51a10.06,10.06,0,0,0,1.54-6.59,1.62,1.62,0,0,0-.84-1c-1.46-.75-3-1.31-4.43-2.14-1.75-1-3.39-2.28-4.93-3.33L335.75,194C338.55,198.42,341.82,202.45,347.18,204.35Zm-75.54-31a12,12,0,0,0,6.17,1.6,1.34,1.34,0,0,0,1.51-1.06,28.17,28.17,0,0,1,5-8.59,5.79,5.79,0,0,0,.49-.79l-.32.18-2.44-2.82C277.57,164.73,273.52,168,271.64,173.34Zm30.61,30.54c5.17-2,8.55-5.79,11.46-10.27l-2.77-3a29.07,29.07,0,0,1-9.76,5.85,1,1,0,0,0-.52.71A11.54,11.54,0,0,0,302.25,203.88ZM364.46,165a26.71,26.71,0,0,1,5.67,9.81,1.1,1.1,0,0,0,.94.52c1.77-.26,3.54-.59,5.29-1,1-.21,1.14-.79.75-1.73-1.89-4.56-5.45-7.52-9.46-10.06a.81.81,0,0,0-.74.06C366.1,163.37,365.33,164.15,364.46,165ZM291.92,183.5c-2.06.2-4.21.4-6.36.63a.77.77,0,0,0-.5.3,12.41,12.41,0,0,0-2.14,8.23,13.52,13.52,0,0,0,8.05-2.11,1.2,1.2,0,0,0,.43-.79C291.59,187.69,291.75,185.62,291.92,183.5Zm74.57,9.55a13.06,13.06,0,0,0-1.52-7.39c-.2-.35-.59-.8-.94-.84-2.26-.26-4.52-.42-6.63-.6.18,2,.35,4.1.56,6.17a1.19,1.19,0,0,0,.42.79A13.18,13.18,0,0,0,366.49,193.05Z"/><path class="cls-4" d="M393.3,189.6c-.5,1.28-.42,2.91-2.11,3.4.33,2.26.76,4.44,1,6.64a15.37,15.37,0,0,1-1.39,7.85,6.46,6.46,0,0,1-3.75,3.32c-4,1.6-8,1.08-12,.1-.4-.09-.8-.24-1.32-.4-.56,2.17-2.37,2.17-4.09,2.29-5,.36-9.28-1.58-13.38-4.1a9.33,9.33,0,0,0-4.12-1.71c-4.1-.44-7.49-2.67-10.35-5.56-2-2.05-3.79-4.36-5.71-6.61-1.89.8-2.6.51-3.53-1.5-3.36-7.26-2.74-14.52.35-21.61,1.57-3.59,3.71-6.94,5.51-10.24l-9.22-9.76-10.08,10.08c.73,1.1,1.63,2.4,2.47,3.75A37.06,37.06,0,0,1,327.3,181a23.09,23.09,0,0,1-2.17,13.11A2,2,0,0,1,322,195c-.28-.17-.55-.36-.83-.54-1.29,1.67-2.46,3.36-3.8,4.9-3.18,3.65-6.89,6.68-11.81,7.41a11.61,11.61,0,0,0-4.56,1.91c-3.51,2.15-7.2,3.86-11.41,4a14.82,14.82,0,0,1-4-.39c-.72-.2-1.28-1-2.12-1.72-1.34.27-3,.72-4.76.91a18.15,18.15,0,0,1-7.6-.55c-3.51-1.11-4.89-3.7-5.49-7a21.84,21.84,0,0,1,.57-9.24c.14-.57.27-1.13.44-1.81-1.77-.32-2.08-1.65-2.31-3.08-.71-4.29.71-8.12,2.49-11.88.25-.53.54-1.05.82-1.57a19.82,19.82,0,0,0,2.5-6.13c.78-4.62,3.83-8.14,7.34-11.15,1.49-1.28,3.11-2.41,4.69-3.63-.56-2.18-.19-2.86,2-3.77a25.65,25.65,0,0,1,20.47.35,107.53,107.53,0,0,1,9.85,5.3c.51.28,1,.64,1.73,1.15.59-.7,1.14-1.44,1.79-2.1,2.69-2.72,5.38-5.44,8.12-8.11a3,3,0,0,0,1-2.42c-.06-4.41,0-8.83,0-13.25,0-1.58.57-2.33,1.74-2.5,1.63-.22,2.56.62,2.57,2.43,0,3.95.13,7.91,0,11.85a5.62,5.62,0,0,0,2.06,4.9c2.76,2.46,5.32,5.15,8,7.74.3.29.62.55.79.72,2.89-1.69,5.6-3.49,8.48-4.91,5.4-2.66,11.09-4.21,17.18-3.26a32.41,32.41,0,0,1,5.81,1.58c2.88,1,3.22,2.13,1.85,4.6,2.15,1.9,4.39,3.68,6.39,5.69,2.79,2.82,5.17,6.1,5.53,10.09.2,2.23,1.3,3.69,2.29,5.36a29.79,29.79,0,0,1,3.56,9.75ZM287.7,154.86c3.67,4.39,7.59,7.69,13,8.69,2.73.51,3.23,1.59,2.39,4.29a33.53,33.53,0,0,0-1.18,6.13c-.18,1.61.28,2,1.91,1.64,2.09-.43,4.16-1,6.21-1.59,1.77-.53,3.06.07,3.52,1.88.24.93.33,1.91.61,2.83,1.27,4.27,4.1,7.45,7.35,10.33a1.45,1.45,0,0,0,.53.19c3-7.62-.6-19.43-7.74-26.22S298.36,152.57,287.7,154.86Zm48.19,34.24c4.41-3.66,7.66-7.66,8.63-13.14.48-2.72,1.61-3.24,4.27-2.38a50.32,50.32,0,0,0,6.37,1.32c.88.16,1.26-.27,1.27-1.22a16,16,0,0,0-1.27-6.51c-.92-2.15-.19-3.62,2.12-4,5.16-.91,9-3.88,12.44-7.61a5.1,5.1,0,0,0,.46-.92C360,152.56,351.62,156,344,162,337.79,169.89,333.33,178.26,335.89,189.1Zm-54.08,2.67a28.59,28.59,0,0,1-10.26,1.56,1.07,1.07,0,0,0-.83.56c-1,3.23-1.67,6.5-.76,9.89a3.77,3.77,0,0,0,2.94,2.93,16.89,16.89,0,0,0,9.77-.77c.29-.1.53-.75.57-1.17.22-2.08.28-4.18.56-6.25a27.68,27.68,0,0,1,1-3.63A3.79,3.79,0,0,1,281.81,191.77Zm91.33,3.29a2.85,2.85,0,0,0,0,.59,29.8,29.8,0,0,1,1.24,9.71c0,.29.44.77.77.89a18.65,18.65,0,0,0,8.32,1c2.63-.3,3.7-1.18,4.33-3.63.77-3,.15-6-.52-9-.19-.84-.59-1-1.38-1.08a49.15,49.15,0,0,1-5.15-.38c-1.56-.22-3.08-.68-4.67-1A3.6,3.6,0,0,1,373.14,195.06ZM288.2,207.88c.27.05.39.09.51.1,4.84.19,8.59-2.21,12.11-5.11a1,1,0,0,0,.24-.88c-.53-2.31-1.11-4.6-1.71-7.08a3,3,0,0,1-3.52-2.09,41.94,41.94,0,0,1-4.63,1.55,2.89,2.89,0,0,0-2.36,2.25C287.62,200.3,287.76,204.05,288.2,207.88Zm85.6-26.59a33.3,33.3,0,0,1,1.51,4.4,3.25,3.25,0,0,0,2.56,2.68c3.15,1,6.37.76,9.6.73,1.36,0,1.61-.56,1.55-1.72a17.58,17.58,0,0,0-3.52-9.15c-1.49-2.15-1.5-2.06-4-1.45-1.81.44-3.68.67-5.63,1A3,3,0,0,1,373.8,181.29Zm-90.21-.44c-1.11-.43-2.06-1.11-1.93-2.54.09-1-.38-1.13-1.23-1.26-2-.31-4-.81-6-1.16a1.43,1.43,0,0,0-1.2.44c-1.33,2.18-2.69,4.35-3.8,6.64a9.87,9.87,0,0,0-.93,5.52c.72.08,1.34.19,2,.23a23.13,23.13,0,0,0,9.46-.93c.79-.28,1.66-.47,2-1.54C282.34,184.48,283,182.75,283.59,180.85Zm74.79,14.86c-.65,2.56-1.27,4.89-1.81,7.24a1.2,1.2,0,0,0,.56.94c1.76,1.06,3.51,2.16,5.37,3.05a13.4,13.4,0,0,0,7,1.5c.45-3.81.64-7.52-.7-11.13a2.89,2.89,0,0,0-1.19-1.63c-1.85-.76-3.79-1.29-5.77-1.93C361.33,195.62,359.84,195.86,358.38,195.71Zm-12.57-10.2a50.19,50.19,0,0,0,5.4,3.54,39.2,39.2,0,0,0,5.79,2c.74.23,1.13-.1,1.27-.92a15.7,15.7,0,0,0-.79-8.42c-.81-2.1-.8-2.1-3-2.12a12.78,12.78,0,0,1-1.64-.08c-1.35-.21-2.69-.46-3.92-.68C347.92,181,346.94,183.11,345.81,185.51Zm-54.37-20.68a40.46,40.46,0,0,0-3.14,4.7,59.22,59.22,0,0,0-2.43,6.44c-.17.51-.22,1.08.61,1.22a15.82,15.82,0,0,0,9.93-1.36,1.3,1.3,0,0,0,.68-.78c.31-2.4.56-4.8.82-7.18Zm75.93,13.1.09-.23c1-.13,2.08-.28,3.12-.38s1.17-.48,1-1.41c-.6-4.2-2.81-7.57-5.47-10.71-.17-.2-.83-.16-1.18,0-1.36.54-2.67,1.21-4,1.75-.77.3-.92.62-.79,1.48.34,2.22.44,4.48.7,6.71.05.41.35,1,.66,1.11C363.44,176.86,365.41,177.37,367.37,177.93Zm-68.21,8.69.22.1c.11,1,.23,2.08.33,3.12.06.6.29.94,1,.79.49-.1,1-.12,1.49-.23a21.89,21.89,0,0,0,9.58-5.32,1.36,1.36,0,0,0,.21-1.23c-.54-1.36-1.26-2.66-1.8-4-.31-.76-.68-.8-1.43-.7-2.23.32-4.49.43-6.72.71a1.64,1.64,0,0,0-1.18.76C300.2,182.59,299.7,184.62,299.16,186.62Zm52.64,15.84a10.25,10.25,0,0,0,1.57-6.74,1.64,1.64,0,0,0-.86-1c-1.49-.77-3.08-1.34-4.52-2.18-1.79-1.07-3.46-2.33-5-3.41l-2.82,2.79C343,196.4,346.32,200.52,351.8,202.46ZM274.67,170.8a12.17,12.17,0,0,0,6.3,1.62,1.38,1.38,0,0,0,1.55-1.08,28.72,28.72,0,0,1,5.09-8.76,6.14,6.14,0,0,0,.51-.81l-.33.18-2.49-2.88C280.72,162,276.59,165.33,274.67,170.8ZM305.92,202c5.29-2,8.73-5.91,11.71-10.49l-2.83-3a29.71,29.71,0,0,1-10,6,1,1,0,0,0-.53.73A11.8,11.8,0,0,0,305.92,202Zm63.52-39.71a27.38,27.38,0,0,1,5.79,10,1.14,1.14,0,0,0,1,.54q2.71-.4,5.4-1c1-.21,1.16-.8.77-1.76-1.93-4.65-5.56-7.68-9.66-10.27a.8.8,0,0,0-.75.06C371.11,160.61,370.33,161.41,369.44,162.27Zm-74.07,18.9c-2.1.2-4.29.41-6.49.64a.77.77,0,0,0-.51.31,12.72,12.72,0,0,0-2.19,8.4,13.8,13.8,0,0,0,8.23-2.15,1.2,1.2,0,0,0,.43-.81C295,185.45,295.2,183.33,295.37,181.17Zm76.14,9.75a13.24,13.24,0,0,0-1.55-7.54c-.2-.37-.6-.83-1-.87-2.3-.26-4.62-.43-6.77-.61.18,2.08.36,4.19.57,6.31a1.22,1.22,0,0,0,.43.8A13.43,13.43,0,0,0,371.51,190.92Z"/><path class="cls-5" d="M287.7,154.86c10.66-2.29,19.51,1.4,26.62,8.17s10.74,18.6,7.74,26.22a1.45,1.45,0,0,1-.53-.19c-3.25-2.88-6.08-6.06-7.35-10.33-.28-.92-.37-1.9-.61-2.83-.46-1.81-1.75-2.41-3.52-1.88-2.05.61-4.12,1.16-6.21,1.59-1.63.33-2.09,0-1.91-1.64a33.53,33.53,0,0,1,1.18-6.13c.84-2.7.34-3.78-2.39-4.29C295.29,162.55,291.37,159.25,287.7,154.86Z"/><path class="cls-5" d="M335.89,189.1c-2.56-10.84,1.9-19.21,8.09-27.06,7.64-6.09,16-9.48,26.2-7.44a5.1,5.1,0,0,1-.46.92c-3.41,3.73-7.28,6.7-12.44,7.61-2.31.42-3,1.89-2.12,4a16,16,0,0,1,1.27,6.51c0,.95-.39,1.38-1.27,1.22a50.32,50.32,0,0,1-6.37-1.32c-2.66-.86-3.79-.34-4.27,2.38C343.55,181.44,340.3,185.44,335.89,189.1Z"/><path class="cls-6" d="M281.81,191.77a3.79,3.79,0,0,0,3,3.12,27.68,27.68,0,0,0-1,3.63c-.28,2.07-.34,4.17-.56,6.25,0,.42-.28,1.07-.57,1.17a16.89,16.89,0,0,1-9.77.77,3.77,3.77,0,0,1-2.94-2.93c-.91-3.39-.26-6.66.76-9.89a1.07,1.07,0,0,1,.83-.56A28.59,28.59,0,0,0,281.81,191.77Z"/><path class="cls-7" d="M373.14,195.06a3.6,3.6,0,0,0,2.94-2.93c1.59.36,3.11.82,4.67,1a49.15,49.15,0,0,0,5.15.38c.79,0,1.19.24,1.38,1.08.67,3,1.29,5.92.52,9-.63,2.45-1.7,3.33-4.33,3.63a18.65,18.65,0,0,1-8.32-1c-.33-.12-.78-.6-.77-.89a29.8,29.8,0,0,0-1.24-9.71A2.85,2.85,0,0,1,373.14,195.06Z"/><path class="cls-8" d="M288.2,207.88c-.44-3.83-.58-7.58.64-11.26a2.89,2.89,0,0,1,2.36-2.25,41.94,41.94,0,0,0,4.63-1.55,3,3,0,0,0,3.52,2.09c.6,2.48,1.18,4.77,1.71,7.08a1,1,0,0,1-.24.88c-3.52,2.9-7.27,5.3-12.11,5.11C288.59,208,288.47,207.93,288.2,207.88Z"/><path class="cls-9" d="M373.8,181.29a3,3,0,0,0,2.07-3.5c1.95-.34,3.82-.57,5.63-1,2.5-.61,2.51-.7,4,1.45a17.58,17.58,0,0,1,3.52,9.15c.06,1.16-.19,1.71-1.55,1.72-3.23,0-6.45.3-9.6-.73a3.25,3.25,0,0,1-2.56-2.68A33.3,33.3,0,0,0,373.8,181.29Z"/><path class="cls-10" d="M283.59,180.85c-.61,1.9-1.25,3.63-1.73,5.4-.3,1.07-1.17,1.26-2,1.54a23.13,23.13,0,0,1-9.46.93c-.62,0-1.24-.15-2-.23a9.87,9.87,0,0,1,.93-5.52c1.11-2.29,2.47-4.46,3.8-6.64a1.43,1.43,0,0,1,1.2-.44c2,.35,4,.85,6,1.16.85.13,1.32.29,1.23,1.26C281.53,179.74,282.48,180.42,283.59,180.85Z"/><path class="cls-11" d="M358.38,195.71c1.46.15,2.95-.09,3.45-2,2,.64,3.92,1.17,5.77,1.93a2.89,2.89,0,0,1,1.19,1.63c1.34,3.61,1.15,7.32.7,11.13a13.4,13.4,0,0,1-7-1.5c-1.86-.89-3.61-2-5.37-3.05a1.2,1.2,0,0,1-.56-.94C357.11,200.6,357.73,198.27,358.38,195.71Z"/><path class="cls-12" d="M345.81,185.51c1.13-2.4,2.11-4.48,3.13-6.67,1.23.22,2.57.47,3.92.68a12.78,12.78,0,0,0,1.64.08c2.18,0,2.17,0,3,2.12a15.7,15.7,0,0,1,.79,8.42c-.14.82-.53,1.15-1.27.92a39.2,39.2,0,0,1-5.79-2A50.19,50.19,0,0,1,345.81,185.51Z"/><path class="cls-13" d="M291.44,164.83l6.47,3c-.26,2.38-.51,4.78-.82,7.18a1.3,1.3,0,0,1-.68.78,15.82,15.82,0,0,1-9.93,1.36c-.83-.14-.78-.71-.61-1.22a59.22,59.22,0,0,1,2.43-6.44A40.46,40.46,0,0,1,291.44,164.83Z"/><path class="cls-14" d="M367.37,177.93c-2-.56-3.93-1.07-5.87-1.7-.31-.1-.61-.7-.66-1.11-.26-2.23-.36-4.49-.7-6.71-.13-.86,0-1.18.79-1.48,1.36-.54,2.67-1.21,4-1.75.35-.14,1-.18,1.18,0,2.66,3.14,4.87,6.51,5.47,10.71.14.93-.13,1.32-1,1.41s-2.08.25-3.12.38Z"/><path class="cls-15" d="M299.16,186.62c.54-2,1-4,1.67-6a1.64,1.64,0,0,1,1.18-.76c2.23-.28,4.49-.39,6.72-.71.75-.1,1.12-.06,1.43.7.54,1.35,1.26,2.65,1.8,4a1.36,1.36,0,0,1-.21,1.23,21.89,21.89,0,0,1-9.58,5.32c-.49.11-1,.13-1.49.23-.68.15-.91-.19-1-.79-.1-1-.22-2.08-.33-3.12Z"/><path class="cls-16" d="M351.8,202.46c-5.48-1.94-8.81-6.06-11.67-10.54l2.82-2.79c1.58,1.08,3.25,2.34,5,3.41,1.44.84,3,1.41,4.52,2.18a1.64,1.64,0,0,1,.86,1A10.25,10.25,0,0,1,351.8,202.46Z"/><path class="cls-17" d="M274.67,170.8c1.92-5.47,6.05-8.79,10.63-11.73l2.49,2.88.33-.18a6.14,6.14,0,0,1-.51.81,28.72,28.72,0,0,0-5.09,8.76,1.38,1.38,0,0,1-1.55,1.08A12.17,12.17,0,0,1,274.67,170.8Z"/><path class="cls-18" d="M305.92,202a11.8,11.8,0,0,1-1.62-6.82,1,1,0,0,1,.53-.73,29.71,29.71,0,0,0,10-6l2.83,3C314.65,196.07,311.21,200,305.92,202Z"/><path class="cls-19" d="M369.44,162.27c.89-.86,1.67-1.66,2.51-2.41a.8.8,0,0,1,.75-.06c4.1,2.59,7.73,5.62,9.66,10.27.39,1,.21,1.55-.77,1.76q-2.68.58-5.4,1a1.14,1.14,0,0,1-1-.54A27.38,27.38,0,0,0,369.44,162.27Z"/><path class="cls-20" d="M295.37,181.17c-.17,2.16-.33,4.28-.53,6.39a1.2,1.2,0,0,1-.43.81,13.8,13.8,0,0,1-8.23,2.15,12.72,12.72,0,0,1,2.19-8.4.77.77,0,0,1,.51-.31C291.08,181.58,293.27,181.37,295.37,181.17Z"/><path class="cls-21" d="M371.51,190.92a13.43,13.43,0,0,1-8.28-1.91,1.22,1.22,0,0,1-.43-.8c-.21-2.12-.39-4.23-.57-6.31,2.15.18,4.47.35,6.77.61.36,0,.76.5,1,.87A13.24,13.24,0,0,1,371.51,190.92Z"/></g></svg>